<svg xmlns="http://www.w3.org/2000/svg" viewBox="0 0 28.7 30.16"><defs><style>.cls-1,.cls-2{fill:none;stroke:#026937;}.cls-1{stroke-linecap:round;stroke-linejoin:round;stroke-width:2px;}.cls-2{stroke-miterlimit:10;}.cls-3{fill:#026937;}.cls-4{fill:#fff;}</style></defs><title>4мес</title><g id="Layer_2" data-name="Layer 2"><g id="text"><path class="cls-1" d="M6.08,6.49a.36.36,0,0,0-.15.46,4,4,0,0,0,.2.38l.17.26a.19.19,0,0,0,.13.07.44.44,0,0,0,.27-.08L7,7.42c.14-.1,0-.3,0-.39l-.08-.16L8,6.1a1.24,1.24,0,0,0,.26.29c.1.07.23,0,.4-.07a.75.75,0,0,0,.16-.14c.06-.07.1-.19,0-.38l-.17-.27-.16-.25a.25.25,0,0,0-.25-.13L7.68,4a3.15,3.15,0,0,0-.47-.71.51.51,0,0,0-.67-.09l-.62.37-.56.35c-.3.19-.1.68.08,1A13.07,13.07,0,0,1,6.08,6.49Zm.24-2.21a.59.59,0,0,1,.34-.11s.11,0,.17.14l.17.3v0H7l.24.4a1.61,1.61,0,0,1,.14.29s0,0-.18.13l-.34.22a.28.28,0,0,1-.18.08c-.07,0-.15-.11-.21-.28L6.17,4.6a.74.74,0,0,1,0-.21Z"/><path class="cls-2" d="M6.08,6.49a.36.36,0,0,0-.15.46,4,4,0,0,0,.2.38l.17.26a.19.19,0,0,0,.13.07.44.44,0,0,0,.27-.08L7,7.42c.14-.1,0-.3,0-.39l-.08-.16L8,6.1a1.24,1.24,0,0,0,.26.29c.1.07.23,0,.4-.07a.75.75,0,0,0,.16-.14c.06-.07.1-.19,0-.38l-.17-.27-.16-.25a.25.25,0,0,0-.25-.13L7.68,4a3.15,3.15,0,0,0-.47-.71.51.51,0,0,0-.67-.09l-.62.37-.56.35c-.3.19-.1.68.08,1A13.07,13.07,0,0,1,6.08,6.49Zm.24-2.21a.59.59,0,0,1,.34-.11s.11,0,.17.14l.17.3v0H7l.24.4a1.61,1.61,0,0,1,.14.29s0,0-.18.13l-.34.22a.28.28,0,0,1-.18.08c-.07,0-.15-.11-.21-.28L6.17,4.6a.74.74,0,0,1,0-.21Z"/><path class="cls-3" d="M6.08,6.49a.36.36,0,0,0-.15.46,4,4,0,0,0,.2.38l.17.26a.19.19,0,0,0,.13.07.44.44,0,0,0,.27-.08L7,7.42c.14-.1,0-.3,0-.39l-.08-.16L8,6.1a1.24,1.24,0,0,0,.26.29c.1.07.23,0,.4-.07a.75.75,0,0,0,.16-.14c.06-.07.1-.19,0-.38l-.17-.27-.16-.25a.25.25,0,0,0-.25-.13L7.68,4a3.15,3.15,0,0,0-.47-.71.51.51,0,0,0-.67-.09l-.62.37-.56.35c-.3.19-.1.68.08,1A13.07,13.07,0,0,1,6.08,6.49Zm.24-2.21a.59.59,0,0,1,.34-.11s.11,0,.17.14l.17.3v0H7l.24.4a1.61,1.61,0,0,1,.14.29s0,0-.18.13l-.34.22a.28.28,0,0,1-.18.08c-.07,0-.15-.11-.21-.28L6.17,4.6a.74.74,0,0,1,0-.21Z"/><path class="cls-1" d="M9.05,5.07c.15.33.31.46.48.42a4.86,4.86,0,0,0,.75-.31c.33-.16.51-.32.52-.46a.54.54,0,0,0-.15-.42.31.31,0,0,0-.36-.13l-.59.26a1.35,1.35,0,0,1-.13-.33c.36-.15.53-.28.52-.38A1.17,1.17,0,0,0,10,3.39a.44.44,0,0,0-.17-.23c-.07,0-.27,0-.61.2,0-.19-.09-.35-.14-.47l.58-.2a.51.51,0,0,0,.27-.2.3.3,0,0,0,0-.27,2.22,2.22,0,0,0-.16-.32c-.08-.12-.21-.16-.41-.09L9,1.93l-.47.18c-.2.08-.27.29-.21.62A9.77,9.77,0,0,0,8.6,3.9,12.25,12.25,0,0,0,9.05,5.07Z"/><path class="cls-2" d="M9.05,5.07c.15.33.31.46.48.42a4.86,4.86,0,0,0,.75-.31c.33-.16.51-.32.52-.46a.54.54,0,0,0-.15-.42.31.31,0,0,0-.36-.13l-.59.26a1.35,1.35,0,0,1-.13-.33c.36-.15.53-.28.52-.38A1.17,1.17,0,0,0,10,3.39a.44.44,0,0,0-.17-.23c-.07,0-.27,0-.61.2,0-.19-.09-.35-.14-.47l.58-.2a.51.51,0,0,0,.27-.2.3.3,0,0,0,0-.27,2.22,2.22,0,0,0-.16-.32c-.08-.12-.21-.16-.41-.09L9,1.93l-.47.18c-.2.08-.27.29-.21.62A9.77,9.77,0,0,0,8.6,3.9,12.25,12.25,0,0,0,9.05,5.07Z"/><path class="cls-3" d="M9.05,5.07c.15.33.31.46.48.42a4.86,4.86,0,0,0,.75-.31c.33-.16.51-.32.52-.46a.54.54,0,0,0-.15-.42.31.31,0,0,0-.36-.13l-.59.26a1.35,1.35,0,0,1-.13-.33c.36-.15.53-.28.52-.38A1.17,1.17,0,0,0,10,3.39a.44.44,0,0,0-.17-.23c-.07,0-.27,0-.61.2,0-.19-.09-.35-.14-.47l.58-.2a.51.51,0,0,0,.27-.2.3.3,0,0,0,0-.27,2.22,2.22,0,0,0-.16-.32c-.08-.12-.21-.16-.41-.09L9,1.93l-.47.18c-.2.08-.27.29-.21.62A9.77,9.77,0,0,0,8.6,3.9,12.25,12.25,0,0,0,9.05,5.07Z"/><path class="cls-1" d="M10.52,2.36a.12.12,0,0,0,.05.08.43.43,0,0,0,.19.07,1.54,1.54,0,0,0,.69-.13c0,.32.09.58.13.75s.08.4.11.59a1.72,1.72,0,0,0,.08.46c0,.1.06.2.08.25v.12a.14.14,0,0,0,0,0,.34.34,0,0,0,.28.28h.06a.75.75,0,0,0,.24,0l.14-.05h0a.13.13,0,0,0,.11,0c.12-.13.12-.37,0-.74a1.3,1.3,0,0,0,0-.23,1.58,1.58,0,0,1-.06-.25v0a2.67,2.67,0,0,1-.15-.72c0-.3-.07-.54-.09-.72l.3,0a.32.32,0,0,0,.26-.13.59.59,0,0,0,0-.52.12.12,0,0,0-.14-.09,8.33,8.33,0,0,1-.86.12l-.69.07-.41.08a.4.4,0,0,0-.29.21v0a.62.62,0,0,0,0,.24.15.15,0,0,0,0,0A2.18,2.18,0,0,1,10.52,2.36Z"/><path class="cls-2" d="M10.52,2.36a.12.12,0,0,0,.05.08.43.43,0,0,0,.19.07,1.54,1.54,0,0,0,.69-.13c0,.32.09.58.13.75s.08.4.11.59a1.72,1.72,0,0,0,.08.46c0,.1.06.2.08.25v.12a.14.14,0,0,0,0,0,.34.34,0,0,0,.28.28h.06a.75.75,0,0,0,.24,0l.14-.05h0a.13.13,0,0,0,.11,0c.12-.13.12-.37,0-.74a1.3,1.3,0,0,0,0-.23,1.58,1.58,0,0,1-.06-.25v0a2.67,2.67,0,0,1-.15-.72c0-.3-.07-.54-.09-.72l.3,0a.32.32,0,0,0,.26-.13.59.59,0,0,0,0-.52.12.12,0,0,0-.14-.09,8.33,8.33,0,0,1-.86.12l-.69.07-.41.08a.4.4,0,0,0-.29.21v0a.62.62,0,0,0,0,.24.15.15,0,0,0,0,0A2.18,2.18,0,0,1,10.52,2.36Z"/><path class="cls-3" d="M10.52,2.36a.12.12,0,0,0,.05.08.43.43,0,0,0,.19.07,1.54,1.54,0,0,0,.69-.13c0,.32.09.58.13.75s.08.4.11.59a1.72,1.72,0,0,0,.08.46c0,.1.06.2.08.25v.12a.14.14,0,0,0,0,0,.34.34,0,0,0,.28.28h.06a.75.75,0,0,0,.24,0l.14-.05h0a.13.13,0,0,0,.11,0c.12-.13.12-.37,0-.74a1.3,1.3,0,0,0,0-.23,1.58,1.58,0,0,1-.06-.25v0a2.67,2.67,0,0,1-.15-.72c0-.3-.07-.54-.09-.72l.3,0a.32.32,0,0,0,.26-.13.59.59,0,0,0,0-.52.12.12,0,0,0-.14-.09,8.33,8.33,0,0,1-.86.12l-.69.07-.41.08a.4.4,0,0,0-.29.21v0a.62.62,0,0,0,0,.24.15.15,0,0,0,0,0A2.18,2.18,0,0,1,10.52,2.36Z"/><path class="cls-1" d="M14.36,3.33l-.47.45a.44.44,0,0,0-.18.4A.39.39,0,0,0,14,4.5l.17,0a.73.73,0,0,0,.22,0,.79.79,0,0,0,.42-.26L15,4.06c0,.36,0,.41.05.42a.92.92,0,0,0,.07.12c0,.06.14.08.35.08s.31,0,.35-.12a.54.54,0,0,0,.07-.24c0-.08,0-.29.09-.72s.09-.8.11-1.23A2.07,2.07,0,0,0,16,1.49a1.16,1.16,0,0,0-.22-.33A1,1,0,0,0,15.18,1a1.81,1.81,0,0,0-1.06.34,1.08,1.08,0,0,0-.59.92,1.05,1.05,0,0,0,.26.77A1.26,1.26,0,0,0,14.36,3.33ZM14.56,2A1.18,1.18,0,0,1,15,1.78h.12a.19.19,0,0,1,.13.07.91.91,0,0,1,.08.45c0,.31,0,.4-.07.42A.34.34,0,0,1,15,2.8a.94.94,0,0,1-.39-.07,1,1,0,0,1-.31-.19.26.26,0,0,1-.07-.26A.55.55,0,0,1,14.56,2Z"/><path class="cls-2" d="M14.36,3.33l-.47.45a.44.44,0,0,0-.18.4A.39.39,0,0,0,14,4.5l.17,0a.73.73,0,0,0,.22,0,.79.79,0,0,0,.42-.26L15,4.06c0,.36,0,.41.05.42a.92.92,0,0,0,.07.12c0,.06.14.08.35.08s.31,0,.35-.12a.54.54,0,0,0,.07-.24c0-.08,0-.29.09-.72s.09-.8.11-1.23A2.07,2.07,0,0,0,16,1.49a1.16,1.16,0,0,0-.22-.33A1,1,0,0,0,15.18,1a1.81,1.81,0,0,0-1.06.34,1.08,1.08,0,0,0-.59.92,1.05,1.05,0,0,0,.26.77A1.26,1.26,0,0,0,14.36,3.33ZM14.56,2A1.18,1.18,0,0,1,15,1.78h.12a.19.19,0,0,1,.13.07.91.91,0,0,1,.08.45c0,.31,0,.4-.07.42A.34.34,0,0,1,15,2.8a.94.94,0,0,1-.39-.07,1,1,0,0,1-.31-.19.26.26,0,0,1-.07-.26A.55.55,0,0,1,14.56,2Z"/><path class="cls-3" d="M14.36,3.33l-.47.45a.44.44,0,0,0-.18.4A.39.39,0,0,0,14,4.5l.17,0a.73.73,0,0,0,.22,0,.79.79,0,0,0,.42-.26L15,4.06c0,.36,0,.41.05.42a.92.92,0,0,0,.07.12c0,.06.14.08.35.08s.31,0,.35-.12a.54.54,0,0,0,.07-.24c0-.08,0-.29.09-.72s.09-.8.11-1.23A2.07,2.07,0,0,0,16,1.49a1.16,1.16,0,0,0-.22-.33A1,1,0,0,0,15.18,1a1.81,1.81,0,0,0-1.06.34,1.08,1.08,0,0,0-.59.92,1.05,1.05,0,0,0,.26.77A1.26,1.26,0,0,0,14.36,3.33ZM14.56,2A1.18,1.18,0,0,1,15,1.78h.12a.19.19,0,0,1,.13.07.91.91,0,0,1,.08.45c0,.31,0,.4-.07.42A.34.34,0,0,1,15,2.8a.94.94,0,0,1-.39-.07,1,1,0,0,1-.31-.19.26.26,0,0,1-.07-.26A.55.55,0,0,1,14.56,2Z"/><path class="cls-1" d="M19.08,4.68c0-.26-.06.54,0,0Z"/><path class="cls-2" d="M19.08,4.68c0-.26-.06.54,0,0Z"/><path class="cls-3" d="M19.08,4.68c0-.26-.06.54,0,0Z"/><path class="cls-1" d="M17.78,3.56c0,.28-.22,1.28.21,1.39s.77-.74,1.08-1c0,.24,0,.48,0,.72s-.09,1,.39.94S19.9,5,20,4.48c0-.32.35-2,.05-2.21-.76-.51-.84.46-1.39.74,0-.54.35-1.63-.65-1.42-.27.06-.57,1-.73,1.21s-.92,1.29-.79,1.69C16.83,5.62,17.65,3.8,17.78,3.56Z"/><path class="cls-2" d="M17.78,3.56c0,.28-.22,1.28.21,1.39s.77-.74,1.08-1c0,.24,0,.48,0,.72s-.09,1,.39.94S19.9,5,20,4.48c0-.32.35-2,.05-2.21-.76-.51-.84.46-1.39.74,0-.54.35-1.63-.65-1.42-.27.06-.57,1-.73,1.21s-.92,1.29-.79,1.69C16.83,5.62,17.65,3.8,17.78,3.56Z"/><path class="cls-3" d="M17.78,3.56c0,.28-.22,1.28.21,1.39s.77-.74,1.08-1c0,.24,0,.48,0,.72s-.09,1,.39.94S19.9,5,20,4.48c0-.32.35-2,.05-2.21-.76-.51-.84.46-1.39.74,0-.54.35-1.63-.65-1.42-.27.06-.57,1-.73,1.21s-.92,1.29-.79,1.69C16.83,5.62,17.65,3.8,17.78,3.56Z"/><path class="cls-1" d="M21.63,6.6a1.49,1.49,0,0,0,.9.16.85.85,0,0,0,.35-.3.36.36,0,0,0,0-.3c-.05-.11-.12-.17-.21-.16h-.32A.55.55,0,0,1,22,5.86a.27.27,0,0,1-.07-.36,1.2,1.2,0,0,1,.47-.42,1,1,0,0,1,.7-.14,1.2,1.2,0,0,0,.42,0,.45.45,0,0,0,.14-.08.87.87,0,0,0,.2-.33.48.48,0,0,0,0-.41q-.08-.12-.6-.21a1.51,1.51,0,0,0-1.11.31,2,2,0,0,0-.78.89,1.42,1.42,0,0,0-.09.86A.94.94,0,0,0,21.63,6.6Z"/><path class="cls-2" d="M21.63,6.6a1.49,1.49,0,0,0,.9.16.85.85,0,0,0,.35-.3.36.36,0,0,0,0-.3c-.05-.11-.12-.17-.21-.16h-.32A.55.55,0,0,1,22,5.86a.27.27,0,0,1-.07-.36,1.2,1.2,0,0,1,.47-.42,1,1,0,0,1,.7-.14,1.2,1.2,0,0,0,.42,0,.45.45,0,0,0,.14-.08.87.87,0,0,0,.2-.33.48.48,0,0,0,0-.41q-.08-.12-.6-.21a1.51,1.51,0,0,0-1.11.31,2,2,0,0,0-.78.89,1.42,1.42,0,0,0-.09.86A.94.94,0,0,0,21.63,6.6Z"/><path class="cls-3" d="M21.63,6.6a1.49,1.49,0,0,0,.9.16.85.85,0,0,0,.35-.3.36.36,0,0,0,0-.3c-.05-.11-.12-.17-.21-.16h-.32A.55.55,0,0,1,22,5.86a.27.27,0,0,1-.07-.36,1.2,1.2,0,0,1,.47-.42,1,1,0,0,1,.7-.14,1.2,1.2,0,0,0,.42,0,.45.45,0,0,0,.14-.08.87.87,0,0,0,.2-.33.48.48,0,0,0,0-.41q-.08-.12-.6-.21a1.51,1.51,0,0,0-1.11.31,2,2,0,0,0-.78.89,1.42,1.42,0,0,0-.09.86A.94.94,0,0,0,21.63,6.6Z"/><path class="cls-1" d="M27.42,12.48A13,13,0,0,0,26.63,10,13.34,13.34,0,0,0,25.4,7.72a.65.65,0,1,0-1.08.73,12.19,12.19,0,0,1,1.12,2,11.84,11.84,0,0,1,.71,2.26,12,12,0,0,1-1.79,9.17.66.66,0,0,0,.18.91.62.62,0,0,0,.28.11.65.65,0,0,0,.63-.29,13.4,13.4,0,0,0,2-10.16Z"/><path class="cls-2" d="M27.42,12.48A13,13,0,0,0,26.63,10,13.34,13.34,0,0,0,25.4,7.72a.65.65,0,1,0-1.08.73,12.19,12.19,0,0,1,1.12,2,11.84,11.84,0,0,1,.71,2.26,12,12,0,0,1-1.79,9.17.66.66,0,0,0,.18.91.62.62,0,0,0,.28.11.65.65,0,0,0,.63-.29,13.4,13.4,0,0,0,2-10.16Z"/><path class="cls-3" d="M27.42,12.48A13,13,0,0,0,26.63,10,13.34,13.34,0,0,0,25.4,7.72a.65.65,0,1,0-1.08.73,12.19,12.19,0,0,1,1.12,2,11.84,11.84,0,0,1,.71,2.26,12,12,0,0,1-1.79,9.17.66.66,0,0,0,.18.91.62.62,0,0,0,.28.11.65.65,0,0,0,.63-.29,13.4,13.4,0,0,0,2-10.16Z"/><path class="cls-1" d="M4.38,22A12.07,12.07,0,0,1,3.24,10.56a12.19,12.19,0,0,1,1.1-2,.65.65,0,0,0-1.08-.73A13.62,13.62,0,0,0,2,10a13.25,13.25,0,0,0-.77,2.51,13.36,13.36,0,0,0,0,5.38,13.25,13.25,0,0,0,2,4.77.65.65,0,0,0,.91.17A.65.65,0,0,0,4.38,22Z"/><path class="cls-2" d="M4.38,22A12.07,12.07,0,0,1,3.24,10.56a12.19,12.19,0,0,1,1.1-2,.65.65,0,0,0-1.08-.73A13.62,13.62,0,0,0,2,10a13.25,13.25,0,0,0-.77,2.51,13.36,13.36,0,0,0,0,5.38,13.25,13.25,0,0,0,2,4.77.65.65,0,0,0,.91.17A.65.65,0,0,0,4.38,22Z"/><path class="cls-3" d="M4.38,22A12.07,12.07,0,0,1,3.24,10.56a12.19,12.19,0,0,1,1.1-2,.65.65,0,0,0-1.08-.73A13.62,13.62,0,0,0,2,10a13.25,13.25,0,0,0-.77,2.51,13.36,13.36,0,0,0,0,5.38,13.25,13.25,0,0,0,2,4.77.65.65,0,0,0,.91.17A.65.65,0,0,0,4.38,22Z"/><path class="cls-1" d="M7.57,24.8l.28-.58a0,0,0,0,0,0,0c-.2-.37-.38-.46-.52-.31L7,24a1,1,0,0,1-.6.15H6.38l.18-.36A3.8,3.8,0,0,0,7,23a0,0,0,0,0,0,0,.55.55,0,0,0-.19-.28.51.51,0,0,0-.48-.14,0,0,0,0,0,0,0c0,.06-.06.17-.34.37l-.56.32-.65.42-.69.48c-.1.1-.12.19-.09.27l.09.16a.42.42,0,0,0,.27.2h0c.51-.37.95-.69,1.3-.93a3.92,3.92,0,0,1-.44.86L5.15,25a1,1,0,0,0-.09.21.23.23,0,0,0,.06.25.28.28,0,0,0,.3,0A2.81,2.81,0,0,1,6.54,25s.05,0,.06,0c-.11.21-.24.46-.37.74-.32.48-.31.56-.26.6l.14.11h0a.43.43,0,0,1,.15.08.1.1,0,0,0,.06,0,.25.25,0,0,0,.2-.09c.09-.12.24-.32.43-.6a6.9,6.9,0,0,0,.56-1Z"/><path class="cls-2" d="M7.57,24.8l.28-.58a0,0,0,0,0,0,0c-.2-.37-.38-.46-.52-.31L7,24a1,1,0,0,1-.6.15H6.38l.18-.36A3.8,3.8,0,0,0,7,23a0,0,0,0,0,0,0,.55.55,0,0,0-.19-.28.51.51,0,0,0-.48-.14,0,0,0,0,0,0,0c0,.06-.06.17-.34.37l-.56.32-.65.42-.69.48c-.1.1-.12.19-.09.27l.09.16a.42.42,0,0,0,.27.2h0c.51-.37.95-.69,1.3-.93a3.92,3.92,0,0,1-.44.86L5.15,25a1,1,0,0,0-.09.21.23.23,0,0,0,.06.25.28.28,0,0,0,.3,0A2.81,2.81,0,0,1,6.54,25s.05,0,.06,0c-.11.21-.24.46-.37.74-.32.48-.31.56-.26.6l.14.11h0a.43.43,0,0,1,.15.08.1.1,0,0,0,.06,0,.25.25,0,0,0,.2-.09c.09-.12.24-.32.43-.6a6.9,6.9,0,0,0,.56-1Z"/><path class="cls-3" d="M7.57,24.8l.28-.58a0,0,0,0,0,0,0c-.2-.37-.38-.46-.52-.31L7,24a1,1,0,0,1-.6.15H6.38l.18-.36A3.8,3.8,0,0,0,7,23a0,0,0,0,0,0,0,.55.55,0,0,0-.19-.28.51.51,0,0,0-.48-.14,0,0,0,0,0,0,0c0,.06-.06.17-.34.37l-.56.32-.65.42-.69.48c-.1.1-.12.19-.09.27l.09.16a.42.42,0,0,0,.27.2h0c.51-.37.95-.69,1.3-.93a3.92,3.92,0,0,1-.44.86L5.15,25a1,1,0,0,0-.09.21.23.23,0,0,0,.06.25.28.28,0,0,0,.3,0A2.81,2.81,0,0,1,6.54,25s.05,0,.06,0c-.11.21-.24.46-.37.74-.32.48-.31.56-.26.6l.14.11h0a.43.43,0,0,1,.15.08.1.1,0,0,0,.06,0,.25.25,0,0,0,.2-.09c.09-.12.24-.32.43-.6a6.9,6.9,0,0,0,.56-1Z"/><path class="cls-1" d="M10.09,24.86l-.39-.24-.45-.2c-.2-.09-.4,0-.59.28A8.82,8.82,0,0,0,8,25.76a11.39,11.39,0,0,0-.51,1.15c-.12.34-.11.55,0,.64a4.89,4.89,0,0,0,.75.31c.35.12.59.14.7,0a.56.56,0,0,0,.19-.41.31.31,0,0,0-.16-.35c-.12-.06-.32-.13-.6-.23a1.47,1.47,0,0,1,.14-.33c.36.15.57.18.64.1a1.36,1.36,0,0,0,.17-.3.43.43,0,0,0,0-.28c0-.08-.21-.17-.57-.29.1-.17.18-.31.24-.43l.55.27a.52.52,0,0,0,.33.05.28.28,0,0,0,.21-.16,1.89,1.89,0,0,0,.12-.33C10.35,25.07,10.28,25,10.09,24.86Z"/><path class="cls-2" d="M10.09,24.86l-.39-.24-.45-.2c-.2-.09-.4,0-.59.28A8.82,8.82,0,0,0,8,25.76a11.39,11.39,0,0,0-.51,1.15c-.12.34-.11.55,0,.64a4.89,4.89,0,0,0,.75.31c.35.12.59.14.7,0a.56.56,0,0,0,.19-.41.31.31,0,0,0-.16-.35c-.12-.06-.32-.13-.6-.23a1.47,1.47,0,0,1,.14-.33c.36.15.57.18.64.1a1.36,1.36,0,0,0,.17-.3.43.43,0,0,0,0-.28c0-.08-.21-.17-.57-.29.1-.17.18-.31.24-.43l.55.27a.52.52,0,0,0,.33.05.28.28,0,0,0,.21-.16,1.89,1.89,0,0,0,.12-.33C10.35,25.07,10.28,25,10.09,24.86Z"/><path class="cls-3" d="M10.09,24.86l-.39-.24-.45-.2c-.2-.09-.4,0-.59.28A8.82,8.82,0,0,0,8,25.76a11.39,11.39,0,0,0-.51,1.15c-.12.34-.11.55,0,.64a4.89,4.89,0,0,0,.75.31c.35.12.59.14.7,0a.56.56,0,0,0,.19-.41.31.31,0,0,0-.16-.35c-.12-.06-.32-.13-.6-.23a1.47,1.47,0,0,1,.14-.33c.36.15.57.18.64.1a1.36,1.36,0,0,0,.17-.3.43.43,0,0,0,0-.28c0-.08-.21-.17-.57-.29.1-.17.18-.31.24-.43l.55.27a.52.52,0,0,0,.33.05.28.28,0,0,0,.21-.16,1.89,1.89,0,0,0,.12-.33C10.35,25.07,10.28,25,10.09,24.86Z"/><path class="cls-1" d="M11.83,25.6a1.67,1.67,0,0,0-1.07.7,2,2,0,0,0-.48,1.18,1.46,1.46,0,0,0,.25.9,1.15,1.15,0,0,0,.69.43,1.77,1.77,0,0,0,1-.14.84.84,0,0,0,.25-.43.37.37,0,0,0-.14-.29.27.27,0,0,0-.29-.09l-.34.12a.64.64,0,0,1-.45,0,.3.3,0,0,1-.22-.34,1.27,1.27,0,0,1,.33-.59,1.11,1.11,0,0,1,.7-.39,1.57,1.57,0,0,0,.47-.1.56.56,0,0,0,.12-.12.83.83,0,0,0,.08-.4.53.53,0,0,0-.2-.4A1.33,1.33,0,0,0,11.83,25.6Z"/><path class="cls-2" d="M11.83,25.6a1.67,1.67,0,0,0-1.07.7,2,2,0,0,0-.48,1.18,1.46,1.46,0,0,0,.25.9,1.15,1.15,0,0,0,.69.43,1.77,1.77,0,0,0,1-.14.84.84,0,0,0,.25-.43.37.37,0,0,0-.14-.29.27.27,0,0,0-.29-.09l-.34.12a.64.64,0,0,1-.45,0,.3.3,0,0,1-.22-.34,1.27,1.27,0,0,1,.33-.59,1.11,1.11,0,0,1,.7-.39,1.57,1.57,0,0,0,.47-.1.56.56,0,0,0,.12-.12.83.83,0,0,0,.08-.4.53.53,0,0,0-.2-.4A1.33,1.33,0,0,0,11.83,25.6Z"/><path class="cls-3" d="M11.83,25.6a1.67,1.67,0,0,0-1.07.7,2,2,0,0,0-.48,1.18,1.46,1.46,0,0,0,.25.9,1.15,1.15,0,0,0,.69.43,1.77,1.77,0,0,0,1-.14.84.84,0,0,0,.25-.43.37.37,0,0,0-.14-.29.27.27,0,0,0-.29-.09l-.34.12a.64.64,0,0,1-.45,0,.3.3,0,0,1-.22-.34,1.27,1.27,0,0,1,.33-.59,1.11,1.11,0,0,1,.7-.39,1.57,1.57,0,0,0,.47-.1.56.56,0,0,0,.12-.12.83.83,0,0,0,.08-.4.53.53,0,0,0-.2-.4A1.33,1.33,0,0,0,11.83,25.6Z"/><path class="cls-1" d="M15.12,26.07a.92.92,0,0,0-.53-.12,1.65,1.65,0,0,0-.94.32.93.93,0,0,0-.51.8.92.92,0,0,0,.25.67A1.13,1.13,0,0,0,14,28l-.45.45a.35.35,0,0,0-.14.34.32.32,0,0,0,.24.25l.13,0a.65.65,0,0,0,.21,0,.68.68,0,0,0,.36-.24,1.63,1.63,0,0,0,.21-.26,1.56,1.56,0,0,0,.06.44l.07.1s.11.06.29,0,.26,0,.3-.1a.46.46,0,0,0,.05-.2c0-.08,0-.3.06-.64s.06-.72.07-1.09a1.78,1.78,0,0,0-.08-.77A1.08,1.08,0,0,0,15.12,26.07Zm-.35,1.39a.35.35,0,0,1-.25.09.93.93,0,0,1-.36-.06.91.91,0,0,1-.29-.17.26.26,0,0,1-.08-.25.5.5,0,0,1,.26-.3,1.08,1.08,0,0,1,.44-.18h.12a.19.19,0,0,1,.13.07.76.76,0,0,1,.09.41C14.84,27.33,14.8,27.43,14.77,27.47Z"/><path class="cls-2" d="M15.12,26.07a.92.92,0,0,0-.53-.12,1.65,1.65,0,0,0-.94.32.93.93,0,0,0-.51.8.92.92,0,0,0,.25.67A1.13,1.13,0,0,0,14,28l-.45.45a.35.35,0,0,0-.14.34.32.32,0,0,0,.24.25l.13,0a.65.65,0,0,0,.21,0,.68.68,0,0,0,.36-.24,1.63,1.63,0,0,0,.21-.26,1.56,1.56,0,0,0,.06.44l.07.1s.11.06.29,0,.26,0,.3-.1a.46.46,0,0,0,.05-.2c0-.08,0-.3.06-.64s.06-.72.07-1.09a1.78,1.78,0,0,0-.08-.77A1.08,1.08,0,0,0,15.12,26.07Zm-.35,1.39a.35.35,0,0,1-.25.09.93.93,0,0,1-.36-.06.91.91,0,0,1-.29-.17.26.26,0,0,1-.08-.25.5.5,0,0,1,.26-.3,1.08,1.08,0,0,1,.44-.18h.12a.19.19,0,0,1,.13.07.76.76,0,0,1,.09.41C14.84,27.33,14.8,27.43,14.77,27.47Z"/><path class="cls-3" d="M15.12,26.07a.92.92,0,0,0-.53-.12,1.65,1.65,0,0,0-.94.32.93.93,0,0,0-.51.8.92.92,0,0,0,.25.67A1.13,1.13,0,0,0,14,28l-.45.45a.35.35,0,0,0-.14.34.32.32,0,0,0,.24.25l.13,0a.65.65,0,0,0,.21,0,.68.68,0,0,0,.36-.24,1.63,1.63,0,0,0,.21-.26,1.56,1.56,0,0,0,.06.44l.07.1s.11.06.29,0,.26,0,.3-.1a.46.46,0,0,0,.05-.2c0-.08,0-.3.06-.64s.06-.72.07-1.09a1.78,1.78,0,0,0-.08-.77A1.08,1.08,0,0,0,15.12,26.07Zm-.35,1.39a.35.35,0,0,1-.25.09.93.93,0,0,1-.36-.06.91.91,0,0,1-.29-.17.26.26,0,0,1-.08-.25.5.5,0,0,1,.26-.3,1.08,1.08,0,0,1,.44-.18h.12a.19.19,0,0,1,.13.07.76.76,0,0,1,.09.41C14.84,27.33,14.8,27.43,14.77,27.47Z"/><path class="cls-1" d="M19.13,27.95a.31.31,0,0,0-.38-.27c-.09-.46-.21-.93-.34-1.4s-.25-.73-.34-.78a.54.54,0,0,0-.33,0c-.13,0-.19.08-.2.16a2,2,0,0,0,0,.35c0,.16.17.73.44,1.69a2.87,2.87,0,0,1-1.07.44c-.18-.69-.3-1.21-.36-1.57s-.23-.49-.51-.41a.36.36,0,0,0-.28.52A12,12,0,0,1,16.14,28c.13.63.29,1,.45,1a2.89,2.89,0,0,0,.76-.1,5.84,5.84,0,0,0,.82-.24l.42-.18c.06,0,.11,0,.12.11a.28.28,0,0,0,.1.22.34.34,0,0,0,.19,0,.37.37,0,0,0,.21-.06.15.15,0,0,0,.08-.16c0-.07,0-.14-.05-.23Z"/><path class="cls-2" d="M19.13,27.95a.31.31,0,0,0-.38-.27c-.09-.46-.21-.93-.34-1.4s-.25-.73-.34-.78a.54.54,0,0,0-.33,0c-.13,0-.19.08-.2.16a2,2,0,0,0,0,.35c0,.16.17.73.44,1.69a2.87,2.87,0,0,1-1.07.44c-.18-.69-.3-1.21-.36-1.57s-.23-.49-.51-.41a.36.36,0,0,0-.28.52A12,12,0,0,1,16.14,28c.13.63.29,1,.45,1a2.89,2.89,0,0,0,.76-.1,5.84,5.84,0,0,0,.82-.24l.42-.18c.06,0,.11,0,.12.11a.28.28,0,0,0,.1.22.34.34,0,0,0,.19,0,.37.37,0,0,0,.21-.06.15.15,0,0,0,.08-.16c0-.07,0-.14-.05-.23Z"/><path class="cls-3" d="M19.13,27.95a.31.31,0,0,0-.38-.27c-.09-.46-.21-.93-.34-1.4s-.25-.73-.34-.78a.54.54,0,0,0-.33,0c-.13,0-.19.08-.2.16a2,2,0,0,0,0,.35c0,.16.17.73.44,1.69a2.87,2.87,0,0,1-1.07.44c-.18-.69-.3-1.21-.36-1.57s-.23-.49-.51-.41a.36.36,0,0,0-.28.52A12,12,0,0,1,16.14,28c.13.63.29,1,.45,1a2.89,2.89,0,0,0,.76-.1,5.84,5.84,0,0,0,.82-.24l.42-.18c.06,0,.11,0,.12.11a.28.28,0,0,0,.1.22.34.34,0,0,0,.19,0,.37.37,0,0,0,.21-.06.15.15,0,0,0,.08-.16c0-.07,0-.14-.05-.23Z"/><path class="cls-1" d="M21.08,26.38c-.11.07-.29.2-.52.38a1.92,1.92,0,0,1-.2-.29c.32-.22.46-.38.43-.48a1.13,1.13,0,0,0-.16-.3.45.45,0,0,0-.22-.19c-.08,0-.26.08-.56.33-.08-.18-.16-.32-.23-.44l.52-.32a.49.49,0,0,0,.22-.25.29.29,0,0,0,0-.27,2.28,2.28,0,0,0-.22-.28c-.1-.11-.24-.11-.42,0l-.42.2-.42.27c-.18.13-.21.34-.08.65a9.2,9.2,0,0,0,.56,1.09A11.27,11.27,0,0,0,20,27.52c.21.29.4.39.56.31a4.86,4.86,0,0,0,.67-.46c.29-.23.43-.42.42-.56a.54.54,0,0,0-.23-.38A.31.31,0,0,0,21.08,26.38Z"/><path class="cls-2" d="M21.08,26.38c-.11.07-.29.2-.52.38a1.92,1.92,0,0,1-.2-.29c.32-.22.46-.38.43-.48a1.13,1.13,0,0,0-.16-.3.45.45,0,0,0-.22-.19c-.08,0-.26.08-.56.33-.08-.18-.16-.32-.23-.44l.52-.32a.49.49,0,0,0,.22-.25.29.29,0,0,0,0-.27,2.28,2.28,0,0,0-.22-.28c-.1-.11-.24-.11-.42,0l-.42.2-.42.27c-.18.13-.21.34-.08.65a9.2,9.2,0,0,0,.56,1.09A11.27,11.27,0,0,0,20,27.52c.21.29.4.39.56.31a4.86,4.86,0,0,0,.67-.46c.29-.23.43-.42.42-.56a.54.54,0,0,0-.23-.38A.31.31,0,0,0,21.08,26.38Z"/><path class="cls-3" d="M21.08,26.38c-.11.07-.29.2-.52.38a1.92,1.92,0,0,1-.2-.29c.32-.22.46-.38.43-.48a1.13,1.13,0,0,0-.16-.3.45.45,0,0,0-.22-.19c-.08,0-.26.08-.56.33-.08-.18-.16-.32-.23-.44l.52-.32a.49.49,0,0,0,.22-.25.29.29,0,0,0,0-.27,2.28,2.28,0,0,0-.22-.28c-.1-.11-.24-.11-.42,0l-.42.2-.42.27c-.18.13-.21.34-.08.65a9.2,9.2,0,0,0,.56,1.09A11.27,11.27,0,0,0,20,27.52c.21.29.4.39.56.31a4.86,4.86,0,0,0,.67-.46c.29-.23.43-.42.42-.56a.54.54,0,0,0-.23-.38A.31.31,0,0,0,21.08,26.38Z"/><path class="cls-1" d="M23.84,23.8a.94.94,0,0,0-.59-.18c0-.15-.08-.35-.31-.58a1,1,0,0,0-.66-.35,1.11,1.11,0,0,0-.62.21,2.93,2.93,0,0,0-.56.52q-.17.35.4,1.12a6.75,6.75,0,0,0,1,1.15.76.76,0,0,0,.81.22,2.53,2.53,0,0,0,.78-.69c.29-.35.35-.64.2-.88A2.07,2.07,0,0,0,23.84,23.8Zm-1.25-.06a.55.55,0,0,1-.21.29c-.11.09-.19.11-.25.06l-.35-.4c0-.08,0-.18.15-.28s.25-.15.34-.12a.59.59,0,0,1,.25.16A.28.28,0,0,1,22.58,23.74ZM23.41,25c-.22.22-.35.27-.38.16a3.1,3.1,0,0,1-.32-.35c0-.06,0-.12,0-.19l.29-.26a.4.4,0,0,1,.48.1C23.66,24.57,23.63,24.74,23.41,25Z"/><path class="cls-2" d="M23.84,23.8a.94.94,0,0,0-.59-.18c0-.15-.08-.35-.31-.58a1,1,0,0,0-.66-.35,1.11,1.11,0,0,0-.62.21,2.93,2.93,0,0,0-.56.52q-.17.35.4,1.12a6.75,6.75,0,0,0,1,1.15.76.76,0,0,0,.81.22,2.53,2.53,0,0,0,.78-.69c.29-.35.35-.64.2-.88A2.07,2.07,0,0,0,23.84,23.8Zm-1.25-.06a.55.55,0,0,1-.21.29c-.11.09-.19.11-.25.06l-.35-.4c0-.08,0-.18.15-.28s.25-.15.34-.12a.59.59,0,0,1,.25.16A.28.28,0,0,1,22.58,23.74ZM23.41,25c-.22.22-.35.27-.38.16a3.1,3.1,0,0,1-.32-.35c0-.06,0-.12,0-.19l.29-.26a.4.4,0,0,1,.48.1C23.66,24.57,23.63,24.74,23.41,25Z"/><path class="cls-3" d="M23.84,23.8a.94.94,0,0,0-.59-.18c0-.15-.08-.35-.31-.58a1,1,0,0,0-.66-.35,1.11,1.11,0,0,0-.62.21,2.93,2.93,0,0,0-.56.52q-.17.35.4,1.12a6.75,6.75,0,0,0,1,1.15.76.76,0,0,0,.81.22,2.53,2.53,0,0,0,.78-.69c.29-.35.35-.64.2-.88A2.07,2.07,0,0,0,23.84,23.8Zm-1.25-.06a.55.55,0,0,1-.21.29c-.11.09-.19.11-.25.06l-.35-.4c0-.08,0-.18.15-.28s.25-.15.34-.12a.59.59,0,0,1,.25.16A.28.28,0,0,1,22.58,23.74ZM23.41,25c-.22.22-.35.27-.38.16a3.1,3.1,0,0,1-.32-.35c0-.06,0-.12,0-.19l.29-.26a.4.4,0,0,1,.48.1C23.66,24.57,23.63,24.74,23.41,25Z"/><path class="cls-1" d="M12,7.18a1.44,1.44,0,0,0-1.2-.81h-.12A1.46,1.46,0,0,0,9.24,7.83a1.45,1.45,0,0,0,.51,1.09A1,1,0,0,1,10,10a2.4,2.4,0,0,0-.15.86,3.21,3.21,0,0,0,2.07,2.72,5.89,5.89,0,0,0,1.65.47,7.37,7.37,0,0,0,1.52,0c2.11-.27,3.73-1.66,3.72-3.25a2.47,2.47,0,0,0-.16-.86,1,1,0,0,1,.26-1.06,1.46,1.46,0,1,0-2.28-1.72,1,1,0,0,1-1.05.52,6,6,0,0,0-2.5,0A1,1,0,0,1,12,7.18Z"/><path class="cls-2" d="M12,7.18a1.44,1.44,0,0,0-1.2-.81h-.12A1.46,1.46,0,0,0,9.24,7.83a1.45,1.45,0,0,0,.51,1.09A1,1,0,0,1,10,10a2.4,2.4,0,0,0-.15.86,3.21,3.21,0,0,0,2.07,2.72,5.89,5.89,0,0,0,1.65.47,7.37,7.37,0,0,0,1.52,0c2.11-.27,3.73-1.66,3.72-3.25a2.47,2.47,0,0,0-.16-.86,1,1,0,0,1,.26-1.06,1.46,1.46,0,1,0-2.28-1.72,1,1,0,0,1-1.05.52,6,6,0,0,0-2.5,0A1,1,0,0,1,12,7.18Z"/><path class="cls-3" d="M12,7.18a1.44,1.44,0,0,0-1.2-.81h-.12A1.46,1.46,0,0,0,9.24,7.83a1.45,1.45,0,0,0,.51,1.09A1,1,0,0,1,10,10a2.4,2.4,0,0,0-.15.86,3.21,3.21,0,0,0,2.07,2.72,5.89,5.89,0,0,0,1.65.47,7.37,7.37,0,0,0,1.52,0c2.11-.27,3.73-1.66,3.72-3.25a2.47,2.47,0,0,0-.16-.86,1,1,0,0,1,.26-1.06,1.46,1.46,0,1,0-2.28-1.72,1,1,0,0,1-1.05.52,6,6,0,0,0-2.5,0A1,1,0,0,1,12,7.18Z"/><path class="cls-1" d="M19.27,23.23a2.3,2.3,0,0,0,1.32-1.16l.22-.45a2.26,2.26,0,0,0,.12-1.75,2,2,0,0,0-1.05-1.17l-.07,0-.23-.07a2.73,2.73,0,0,1-.4-.13l-.06,0h0a.44.44,0,0,1-.27-.42c0-.41.62-.65.62-.65.64-.36,2.67-1.27,3-2a2.28,2.28,0,0,0-.83-2.42c-1.28-1-3.48.62-4.92,1.21a5.9,5.9,0,0,1-2.3.45,6.4,6.4,0,0,1-2.42-.49c-1.44-.62-3.58-2.16-4.84-1.18a2.28,2.28,0,0,0-.83,2.42c.29.74,2.32,1.65,3,2,0,0,.62.24.62.65a.44.44,0,0,1-.27.42h0l-.06,0a2.72,2.72,0,0,1-.4.13l-.23.07-.07,0a2,2,0,0,0-1.05,1.17,2.26,2.26,0,0,0,.12,1.75l.22.45a2.3,2.3,0,0,0,1.32,1.16A2.05,2.05,0,0,0,11,23.12L13.23,22a5.62,5.62,0,0,0,1.08.11A6.68,6.68,0,0,0,15.47,22l2.22,1.13A2.05,2.05,0,0,0,19.27,23.23Z"/><path class="cls-2" d="M19.27,23.23a2.3,2.3,0,0,0,1.32-1.16l.22-.45a2.26,2.26,0,0,0,.12-1.75,2,2,0,0,0-1.05-1.17l-.07,0-.23-.07a2.73,2.73,0,0,1-.4-.13l-.06,0h0a.44.44,0,0,1-.27-.42c0-.41.62-.65.62-.65.64-.36,2.67-1.27,3-2a2.28,2.28,0,0,0-.83-2.42c-1.28-1-3.48.62-4.92,1.21a5.9,5.9,0,0,1-2.3.45,6.4,6.4,0,0,1-2.42-.49c-1.44-.62-3.58-2.16-4.84-1.18a2.28,2.28,0,0,0-.83,2.42c.29.74,2.32,1.65,3,2,0,0,.62.24.62.65a.44.44,0,0,1-.27.42h0l-.06,0a2.72,2.72,0,0,1-.4.13l-.23.07-.07,0a2,2,0,0,0-1.05,1.17,2.26,2.26,0,0,0,.12,1.75l.22.45a2.3,2.3,0,0,0,1.32,1.16A2.05,2.05,0,0,0,11,23.12L13.23,22a5.62,5.62,0,0,0,1.08.11A6.68,6.68,0,0,0,15.47,22l2.22,1.13A2.05,2.05,0,0,0,19.27,23.23Z"/><path class="cls-3" d="M19.27,23.23a2.3,2.3,0,0,0,1.32-1.16l.22-.45a2.26,2.26,0,0,0,.12-1.75,2,2,0,0,0-1.05-1.17l-.07,0-.23-.07a2.73,2.73,0,0,1-.4-.13l-.06,0h0a.44.44,0,0,1-.27-.42c0-.41.62-.65.62-.65.64-.36,2.67-1.27,3-2a2.28,2.28,0,0,0-.83-2.42c-1.28-1-3.48.62-4.92,1.21a5.9,5.9,0,0,1-2.3.45,6.4,6.4,0,0,1-2.42-.49c-1.44-.62-3.58-2.16-4.84-1.18a2.28,2.28,0,0,0-.83,2.42c.29.74,2.32,1.65,3,2,0,0,.62.24.62.65a.44.44,0,0,1-.27.42h0l-.06,0a2.72,2.72,0,0,1-.4.13l-.23.07-.07,0a2,2,0,0,0-1.05,1.17,2.26,2.26,0,0,0,.12,1.75l.22.45a2.3,2.3,0,0,0,1.32,1.16A2.05,2.05,0,0,0,11,23.12L13.23,22a5.62,5.62,0,0,0,1.08.11A6.68,6.68,0,0,0,15.47,22l2.22,1.13A2.05,2.05,0,0,0,19.27,23.23Z"/><path class="cls-4" d="M6.08,6.49a.36.36,0,0,0-.15.46,4,4,0,0,0,.2.38l.17.26a.19.19,0,0,0,.13.07.44.44,0,0,0,.27-.08L7,7.42c.14-.1,0-.3,0-.39l-.08-.16L8,6.1a1.24,1.24,0,0,0,.26.29c.1.07.23,0,.4-.07a.75.75,0,0,0,.16-.14c.06-.07.1-.19,0-.38l-.17-.27-.16-.25a.25.25,0,0,0-.25-.13L7.68,4a3.15,3.15,0,0,0-.47-.71.51.51,0,0,0-.67-.09l-.62.37-.56.35c-.3.19-.1.68.08,1A13.07,13.07,0,0,1,6.08,6.49Zm.24-2.21a.59.59,0,0,1,.34-.11s.11,0,.17.14l.17.3v0H7l.24.4a1.61,1.61,0,0,1,.14.29s0,0-.18.13l-.34.22a.28.28,0,0,1-.18.08c-.07,0-.15-.11-.21-.28L6.17,4.6a.74.74,0,0,1,0-.21Z"/><path class="cls-4" d="M9.05,5.07c.15.33.31.46.48.42a4.86,4.86,0,0,0,.75-.31c.33-.16.51-.32.52-.46a.54.54,0,0,0-.15-.42.31.31,0,0,0-.36-.13l-.59.26a1.35,1.35,0,0,1-.13-.33c.36-.15.53-.28.52-.38A1.17,1.17,0,0,0,10,3.39a.44.44,0,0,0-.17-.23c-.07,0-.27,0-.61.2,0-.19-.09-.35-.14-.47l.58-.2a.51.51,0,0,0,.27-.2.3.3,0,0,0,0-.27,2.22,2.22,0,0,0-.16-.32c-.08-.12-.21-.16-.41-.09L9,1.93l-.47.18c-.2.08-.27.29-.21.62A9.77,9.77,0,0,0,8.6,3.9,12.25,12.25,0,0,0,9.05,5.07Z"/><path class="cls-4" d="M10.52,2.36a.12.12,0,0,0,.05.08.43.43,0,0,0,.19.07,1.54,1.54,0,0,0,.69-.13c0,.32.09.58.13.75s.08.4.11.59a1.72,1.72,0,0,0,.08.46c0,.1.06.2.08.25v.12a.14.14,0,0,0,0,0,.34.34,0,0,0,.28.28h.06a.75.75,0,0,0,.24,0l.14-.05h0a.13.13,0,0,0,.11,0c.12-.13.12-.37,0-.74a1.3,1.3,0,0,0,0-.23,1.58,1.58,0,0,1-.06-.25v0a2.67,2.67,0,0,1-.15-.72c0-.3-.07-.54-.09-.72l.3,0a.32.32,0,0,0,.26-.13.59.59,0,0,0,0-.52.12.12,0,0,0-.14-.09,8.33,8.33,0,0,1-.86.12l-.69.07-.41.08a.4.4,0,0,0-.29.21v0a.62.62,0,0,0,0,.24.15.15,0,0,0,0,0A2.18,2.18,0,0,1,10.52,2.36Z"/><path class="cls-4" d="M14.36,3.33l-.47.45a.44.44,0,0,0-.18.4A.39.39,0,0,0,14,4.5l.17,0a.73.73,0,0,0,.22,0,.79.79,0,0,0,.42-.26L15,4.06c0,.36,0,.41.05.42a.92.92,0,0,0,.07.12c0,.06.14.08.35.08s.31,0,.35-.12a.54.54,0,0,0,.07-.24c0-.08,0-.29.09-.72s.09-.8.11-1.23A2.07,2.07,0,0,0,16,1.49a1.16,1.16,0,0,0-.22-.33A1,1,0,0,0,15.18,1a1.81,1.81,0,0,0-1.06.34,1.08,1.08,0,0,0-.59.92,1.05,1.05,0,0,0,.26.77A1.26,1.26,0,0,0,14.36,3.33ZM14.56,2A1.18,1.18,0,0,1,15,1.78h.12a.19.19,0,0,1,.13.07.91.91,0,0,1,.08.45c0,.31,0,.4-.07.42A.34.34,0,0,1,15,2.8a.94.94,0,0,1-.39-.07,1,1,0,0,1-.31-.19.26.26,0,0,1-.07-.26A.55.55,0,0,1,14.56,2Z"/><path class="cls-4" d="M19.08,4.68c0-.26-.06.54,0,0Z"/><path class="cls-4" d="M17.78,3.56c0,.28-.22,1.28.21,1.39s.77-.74,1.08-1c0,.24,0,.48,0,.72s-.09,1,.39.94S19.9,5,20,4.48c0-.32.35-2,.05-2.21-.76-.51-.84.46-1.39.74,0-.54.35-1.63-.65-1.42-.27.06-.57,1-.73,1.21s-.92,1.29-.79,1.69C16.83,5.62,17.65,3.8,17.78,3.56Z"/><path class="cls-4" d="M21.63,6.6a1.49,1.49,0,0,0,.9.16.85.85,0,0,0,.35-.3.36.36,0,0,0,0-.3c-.05-.11-.12-.17-.21-.16h-.32A.55.55,0,0,1,22,5.86a.27.27,0,0,1-.07-.36,1.2,1.2,0,0,1,.47-.42,1,1,0,0,1,.7-.14,1.2,1.2,0,0,0,.42,0,.45.45,0,0,0,.14-.08.87.87,0,0,0,.2-.33.48.48,0,0,0,0-.41q-.08-.12-.6-.21a1.51,1.51,0,0,0-1.11.31,2,2,0,0,0-.78.89,1.42,1.42,0,0,0-.09.86A.94.94,0,0,0,21.63,6.6Z"/><path class="cls-4" d="M27.42,12.48A13,13,0,0,0,26.63,10,13.34,13.34,0,0,0,25.4,7.72a.65.65,0,1,0-1.08.73,12.19,12.19,0,0,1,1.12,2,11.84,11.84,0,0,1,.71,2.26,12,12,0,0,1-1.79,9.17.66.66,0,0,0,.18.91.62.62,0,0,0,.28.11.65.65,0,0,0,.63-.29,13.4,13.4,0,0,0,2-10.16Z"/><path class="cls-4" d="M4.38,22A12.07,12.07,0,0,1,3.24,10.56a12.19,12.19,0,0,1,1.1-2,.65.65,0,0,0-1.08-.73A13.62,13.62,0,0,0,2,10a13.25,13.25,0,0,0-.77,2.51,13.36,13.36,0,0,0,0,5.38,13.25,13.25,0,0,0,2,4.77.65.65,0,0,0,.91.17A.65.65,0,0,0,4.38,22Z"/><path class="cls-4" d="M7.57,24.8l.28-.58a0,0,0,0,0,0,0c-.2-.37-.38-.46-.52-.31L7,24a1,1,0,0,1-.6.15H6.38l.18-.36A3.8,3.8,0,0,0,7,23a0,0,0,0,0,0,0,.55.55,0,0,0-.19-.28.51.51,0,0,0-.48-.14,0,0,0,0,0,0,0c0,.06-.06.17-.34.37l-.56.32-.65.42-.69.48c-.1.1-.12.19-.09.27l.09.16a.42.42,0,0,0,.27.2h0c.51-.37.95-.69,1.3-.93a3.92,3.92,0,0,1-.44.86L5.15,25a1,1,0,0,0-.09.21.23.23,0,0,0,.06.25.28.28,0,0,0,.3,0A2.81,2.81,0,0,1,6.54,25s.05,0,.06,0c-.11.21-.24.46-.37.74-.32.48-.31.56-.26.6l.14.11h0a.43.43,0,0,1,.15.08.1.1,0,0,0,.06,0,.25.25,0,0,0,.2-.09c.09-.12.24-.32.43-.6a6.9,6.9,0,0,0,.56-1Z"/><path class="cls-4" d="M10.09,24.86l-.39-.24-.45-.2c-.2-.09-.4,0-.59.28A8.82,8.82,0,0,0,8,25.76a11.39,11.39,0,0,0-.51,1.15c-.12.34-.11.55,0,.64a4.89,4.89,0,0,0,.75.31c.35.12.59.14.7,0a.56.56,0,0,0,.19-.41.31.31,0,0,0-.16-.35c-.12-.06-.32-.13-.6-.23a1.47,1.47,0,0,1,.14-.33c.36.15.57.18.64.1a1.36,1.36,0,0,0,.17-.3.43.43,0,0,0,0-.28c0-.08-.21-.17-.57-.29.1-.17.18-.31.24-.43l.55.27a.52.52,0,0,0,.33.05.28.28,0,0,0,.21-.16,1.89,1.89,0,0,0,.12-.33C10.35,25.07,10.28,25,10.09,24.86Z"/><path class="cls-4" d="M11.83,25.6a1.67,1.67,0,0,0-1.07.7,2,2,0,0,0-.48,1.18,1.46,1.46,0,0,0,.25.9,1.15,1.15,0,0,0,.69.43,1.77,1.77,0,0,0,1-.14.84.84,0,0,0,.25-.43.37.37,0,0,0-.14-.29.27.27,0,0,0-.29-.09l-.34.12a.64.64,0,0,1-.45,0,.3.3,0,0,1-.22-.34,1.27,1.27,0,0,1,.33-.59,1.11,1.11,0,0,1,.7-.39,1.57,1.57,0,0,0,.47-.1.56.56,0,0,0,.12-.12.83.83,0,0,0,.08-.4.53.53,0,0,0-.2-.4A1.33,1.33,0,0,0,11.83,25.6Z"/><path class="cls-4" d="M15.12,26.07a.92.92,0,0,0-.53-.12,1.65,1.65,0,0,0-.94.32.93.93,0,0,0-.51.8.92.92,0,0,0,.25.67A1.13,1.13,0,0,0,14,28l-.45.45a.35.35,0,0,0-.14.34.32.32,0,0,0,.24.25l.13,0a.65.65,0,0,0,.21,0,.68.68,0,0,0,.36-.24,1.63,1.63,0,0,0,.21-.26,1.56,1.56,0,0,0,.06.44l.07.1s.11.06.29,0,.26,0,.3-.1a.46.46,0,0,0,.05-.2c0-.08,0-.3.06-.64s.06-.72.07-1.09a1.78,1.78,0,0,0-.08-.77A1.08,1.08,0,0,0,15.12,26.07Zm-.35,1.39a.35.35,0,0,1-.25.09.93.93,0,0,1-.36-.06.91.91,0,0,1-.29-.17.26.26,0,0,1-.08-.25.5.5,0,0,1,.26-.3,1.08,1.08,0,0,1,.44-.18h.12a.19.19,0,0,1,.13.07.76.76,0,0,1,.09.41C14.84,27.33,14.8,27.43,14.77,27.47Z"/><path class="cls-4" d="M19.13,27.95a.31.31,0,0,0-.38-.27c-.09-.46-.21-.93-.34-1.4s-.25-.73-.34-.78a.54.54,0,0,0-.33,0c-.13,0-.19.08-.2.16a2,2,0,0,0,0,.35c0,.16.17.73.44,1.69a2.87,2.87,0,0,1-1.07.44c-.18-.69-.3-1.21-.36-1.57s-.23-.49-.51-.41a.36.36,0,0,0-.28.52A12,12,0,0,1,16.14,28c.13.63.29,1,.45,1a2.89,2.89,0,0,0,.76-.1,5.84,5.84,0,0,0,.82-.24l.42-.18c.06,0,.11,0,.12.11a.28.28,0,0,0,.1.22.34.34,0,0,0,.19,0,.37.37,0,0,0,.21-.06.15.15,0,0,0,.08-.16c0-.07,0-.14-.05-.23Z"/><path class="cls-4" d="M21.08,26.38c-.11.07-.29.2-.52.38a1.92,1.92,0,0,1-.2-.29c.32-.22.46-.38.43-.48a1.13,1.13,0,0,0-.16-.3.45.45,0,0,0-.22-.19c-.08,0-.26.08-.56.33-.08-.18-.16-.32-.23-.44l.52-.32a.49.49,0,0,0,.22-.25.29.29,0,0,0,0-.27,2.28,2.28,0,0,0-.22-.28c-.1-.11-.24-.11-.42,0l-.42.2-.42.27c-.18.13-.21.34-.08.65a9.2,9.2,0,0,0,.56,1.09A11.27,11.27,0,0,0,20,27.52c.21.29.4.39.56.31a4.86,4.86,0,0,0,.67-.46c.29-.23.43-.42.42-.56a.54.54,0,0,0-.23-.38A.31.31,0,0,0,21.08,26.38Z"/><path class="cls-4" d="M23.84,23.8a.94.94,0,0,0-.59-.18c0-.15-.08-.35-.31-.58a1,1,0,0,0-.66-.35,1.11,1.11,0,0,0-.62.21,2.93,2.93,0,0,0-.56.52q-.17.35.4,1.12a6.75,6.75,0,0,0,1,1.15.76.76,0,0,0,.81.22,2.53,2.53,0,0,0,.78-.69c.29-.35.35-.64.2-.88A2.07,2.07,0,0,0,23.84,23.8Zm-1.25-.06a.55.55,0,0,1-.21.29c-.11.09-.19.11-.25.06l-.35-.4c0-.08,0-.18.15-.28s.25-.15.34-.12a.59.59,0,0,1,.25.16A.28.28,0,0,1,22.58,23.74ZM23.41,25c-.22.22-.35.27-.38.16a3.1,3.1,0,0,1-.32-.35c0-.06,0-.12,0-.19l.29-.26a.4.4,0,0,1,.48.1C23.66,24.57,23.63,24.74,23.41,25Z"/><path class="cls-4" d="M12,7.18a1.44,1.44,0,0,0-1.2-.81h-.12A1.46,1.46,0,0,0,9.24,7.83a1.45,1.45,0,0,0,.51,1.09A1,1,0,0,1,10,10a2.4,2.4,0,0,0-.15.86,3.21,3.21,0,0,0,2.07,2.72,5.89,5.89,0,0,0,1.65.47,7.37,7.37,0,0,0,1.52,0c2.11-.27,3.73-1.66,3.72-3.25a2.47,2.47,0,0,0-.16-.86,1,1,0,0,1,.26-1.06,1.46,1.46,0,1,0-2.28-1.72,1,1,0,0,1-1.05.52,6,6,0,0,0-2.5,0A1,1,0,0,1,12,7.18Zm.52,4.6a.62.62,0,0,1-.87,0,.6.6,0,0,1-.18-.43.62.62,0,0,1,.18-.44.61.61,0,0,1,1,.43A.62.62,0,0,1,12.52,11.78Zm3.63-.88a.63.63,0,0,1,.43-.19.63.63,0,0,1,.44.18.63.63,0,0,1,.18.43.62.62,0,0,1-.18.44.63.63,0,0,1-.44.19.62.62,0,0,1-.43-.18.61.61,0,0,1,0-.87Zm-1.7,1.24c.51,0,.93.2.94.47s-.42.49-.93.5-.94-.2-.94-.47S13.93,12.15,14.45,12.14Z"/><path class="cls-4" d="M14,17.5l-.81,1.32v0h1.36V17.5c0-.36,0-.74,0-1.13h0C14.4,16.76,14.24,17.12,14,17.5Z"/><path class="cls-4" d="M19.27,23.23a2.3,2.3,0,0,0,1.32-1.16l.22-.45a2.26,2.26,0,0,0,.12-1.75,2,2,0,0,0-1.05-1.17l-.07,0-.23-.07a2.73,2.73,0,0,1-.4-.13l-.06,0h0a.44.44,0,0,1-.27-.42c0-.41.62-.65.62-.65.64-.36,2.67-1.27,3-2a2.28,2.28,0,0,0-.83-2.42c-1.28-1-3.48.62-4.92,1.21a5.9,5.9,0,0,1-2.3.45,6.4,6.4,0,0,1-2.42-.49c-1.44-.62-3.58-2.16-4.84-1.18a2.28,2.28,0,0,0-.83,2.42c.29.74,2.32,1.65,3,2,0,0,.62.24.62.65a.44.44,0,0,1-.27.42h0l-.06,0a2.72,2.72,0,0,1-.4.13l-.23.07-.07,0a2,2,0,0,0-1.05,1.17,2.26,2.26,0,0,0,.12,1.75l.22.45a2.3,2.3,0,0,0,1.32,1.16A2.05,2.05,0,0,0,11,23.12L13.23,22a5.62,5.62,0,0,0,1.08.11A6.68,6.68,0,0,0,15.47,22l2.22,1.13A2.05,2.05,0,0,0,19.27,23.23ZM16.66,19.9h-.73v1.44H14.59V19.9H11.91V19l2.29-3.69h1.73v3.55h.73Z"/></g></g></svg>