<svg xmlns="http://www.w3.org/2000/svg" viewBox="0 0 28.7 30.16"><defs><style>.cls-1{fill:#026937;}.cls-2,.cls-3{fill:none;stroke:#026937;stroke-linecap:round;stroke-linejoin:round;}.cls-3{stroke-width:2px;}.cls-4{fill:#fff;}</style></defs><title>6 мес</title><g id="Layer_2" data-name="Layer 2"><g id="Layer_5" data-name="Layer 5"><path class="cls-1" d="M6.08,6.49a.36.36,0,0,0-.15.46,4,4,0,0,0,.2.38l.17.26a.19.19,0,0,0,.13.07.45.45,0,0,0,.27-.08L7,7.42c.14-.1,0-.3,0-.39l-.08-.16L8,6.1a1.27,1.27,0,0,0,.26.29c.1.07.23,0,.4-.07a.72.72,0,0,0,.16-.14c.06-.07.1-.19,0-.38l-.17-.27-.16-.25a.25.25,0,0,0-.25-.14L7.68,4a3.19,3.19,0,0,0-.47-.71.51.51,0,0,0-.67-.09l-.62.37-.56.35c-.3.19-.1.68.08,1A13.17,13.17,0,0,1,6.08,6.49Zm.24-2.22a.59.59,0,0,1,.34-.11.23.23,0,0,1,.17.14l.17.3v0H7l.24.4a1.47,1.47,0,0,1,.14.29s0,0-.18.13l-.34.22a.28.28,0,0,1-.18.08c-.07,0-.15-.11-.21-.28L6.17,4.6a.69.69,0,0,1,0-.21Z"/><path class="cls-2" d="M6.08,6.49a.36.36,0,0,0-.15.46,4,4,0,0,0,.2.38l.17.26a.19.19,0,0,0,.13.07.45.45,0,0,0,.27-.08L7,7.42c.14-.1,0-.3,0-.39l-.08-.16L8,6.1a1.27,1.27,0,0,0,.26.29c.1.07.23,0,.4-.07a.72.72,0,0,0,.16-.14c.06-.07.1-.19,0-.38l-.17-.27-.16-.25a.25.25,0,0,0-.25-.14L7.68,4a3.19,3.19,0,0,0-.47-.71.51.51,0,0,0-.67-.09l-.62.37-.56.35c-.3.19-.1.68.08,1A13.17,13.17,0,0,1,6.08,6.49Zm.24-2.22a.59.59,0,0,1,.34-.11.23.23,0,0,1,.17.14l.17.3v0H7l.24.4a1.47,1.47,0,0,1,.14.29s0,0-.18.13l-.34.22a.28.28,0,0,1-.18.08c-.07,0-.15-.11-.21-.28L6.17,4.6a.69.69,0,0,1,0-.21Z"/><path class="cls-3" d="M6.08,6.49a.36.36,0,0,0-.15.46,4,4,0,0,0,.2.38l.17.26a.19.19,0,0,0,.13.07.45.45,0,0,0,.27-.08L7,7.42c.14-.1,0-.3,0-.39l-.08-.16L8,6.1a1.27,1.27,0,0,0,.26.29c.1.07.23,0,.4-.07a.72.72,0,0,0,.16-.14c.06-.07.1-.19,0-.38l-.17-.27-.16-.25a.25.25,0,0,0-.25-.14L7.68,4a3.19,3.19,0,0,0-.47-.71.51.51,0,0,0-.67-.09l-.62.37-.56.35c-.3.19-.1.68.08,1A13.17,13.17,0,0,1,6.08,6.49Zm.24-2.22a.59.59,0,0,1,.34-.11.23.23,0,0,1,.17.14l.17.3v0H7l.24.4a1.47,1.47,0,0,1,.14.29s0,0-.18.13l-.34.22a.28.28,0,0,1-.18.08c-.07,0-.15-.11-.21-.28L6.17,4.6a.69.69,0,0,1,0-.21Z"/><path class="cls-1" d="M9.05,5.07c.15.33.31.46.48.42a5.14,5.14,0,0,0,.75-.31c.33-.16.51-.32.52-.46a.54.54,0,0,0-.15-.42.31.31,0,0,0-.36-.13l-.59.26a1.4,1.4,0,0,1-.13-.33c.36-.15.53-.28.52-.39A1.22,1.22,0,0,0,10,3.39a.44.44,0,0,0-.17-.23c-.07,0-.27,0-.61.2,0-.19-.09-.35-.14-.47l.58-.2a.5.5,0,0,0,.27-.19.29.29,0,0,0,0-.27,2.08,2.08,0,0,0-.16-.32c-.07-.12-.21-.16-.41-.09L9,1.93l-.47.18c-.2.08-.27.29-.21.62A9.74,9.74,0,0,0,8.6,3.9,12.5,12.5,0,0,0,9.05,5.07Z"/><path class="cls-2" d="M9.05,5.07c.15.33.31.46.48.42a5.14,5.14,0,0,0,.75-.31c.33-.16.51-.32.52-.46a.54.54,0,0,0-.15-.42.31.31,0,0,0-.36-.13l-.59.26a1.4,1.4,0,0,1-.13-.33c.36-.15.53-.28.52-.39A1.22,1.22,0,0,0,10,3.39a.44.44,0,0,0-.17-.23c-.07,0-.27,0-.61.2,0-.19-.09-.35-.14-.47l.58-.2a.5.5,0,0,0,.27-.19.29.29,0,0,0,0-.27,2.08,2.08,0,0,0-.16-.32c-.07-.12-.21-.16-.41-.09L9,1.93l-.47.18c-.2.08-.27.29-.21.62A9.74,9.74,0,0,0,8.6,3.9,12.5,12.5,0,0,0,9.05,5.07Z"/><path class="cls-3" d="M9.05,5.07c.15.33.31.46.48.42a5.14,5.14,0,0,0,.75-.31c.33-.16.51-.32.52-.46a.54.54,0,0,0-.15-.42.31.31,0,0,0-.36-.13l-.59.26a1.4,1.4,0,0,1-.13-.33c.36-.15.53-.28.52-.39A1.22,1.22,0,0,0,10,3.39a.44.44,0,0,0-.17-.23c-.07,0-.27,0-.61.2,0-.19-.09-.35-.14-.47l.58-.2a.5.5,0,0,0,.27-.19.29.29,0,0,0,0-.27,2.08,2.08,0,0,0-.16-.32c-.07-.12-.21-.16-.41-.09L9,1.93l-.47.18c-.2.08-.27.29-.21.62A9.74,9.74,0,0,0,8.6,3.9,12.5,12.5,0,0,0,9.05,5.07Z"/><path class="cls-1" d="M10.52,2.36a.12.12,0,0,0,.05.08.41.41,0,0,0,.19.07,1.52,1.52,0,0,0,.69-.13c.05.33.09.58.13.75s.08.4.11.59a1.73,1.73,0,0,0,.08.46c0,.1.06.2.08.25v.12a.13.13,0,0,0,0,0,.35.35,0,0,0,.28.28h.06a.73.73,0,0,0,.24,0l.14-.05a.13.13,0,0,0,.11,0c.12-.13.12-.36,0-.74a1.23,1.23,0,0,0,0-.23,1.71,1.71,0,0,1-.06-.25v0a2.7,2.7,0,0,1-.15-.72c0-.3-.07-.54-.09-.72l.3,0a.32.32,0,0,0,.26-.13.6.6,0,0,0,0-.52.13.13,0,0,0-.14-.09,8.39,8.39,0,0,1-.87.12l-.69.07a2.91,2.91,0,0,0-.41.08.4.4,0,0,0-.29.21v0a.63.63,0,0,0,0,.24v0A2.13,2.13,0,0,1,10.52,2.36Z"/><path class="cls-2" d="M10.52,2.36a.12.12,0,0,0,.05.08.41.41,0,0,0,.19.07,1.52,1.52,0,0,0,.69-.13c.05.33.09.58.13.75s.08.4.11.59a1.73,1.73,0,0,0,.08.46c0,.1.06.2.08.25v.12a.13.13,0,0,0,0,0,.35.35,0,0,0,.28.28h.06a.73.73,0,0,0,.24,0l.14-.05a.13.13,0,0,0,.11,0c.12-.13.12-.36,0-.74a1.23,1.23,0,0,0,0-.23,1.71,1.71,0,0,1-.06-.25v0a2.7,2.7,0,0,1-.15-.72c0-.3-.07-.54-.09-.72l.3,0a.32.32,0,0,0,.26-.13.6.6,0,0,0,0-.52.13.13,0,0,0-.14-.09,8.39,8.39,0,0,1-.87.12l-.69.07a2.91,2.91,0,0,0-.41.08.4.4,0,0,0-.29.21v0a.63.63,0,0,0,0,.24v0A2.13,2.13,0,0,1,10.52,2.36Z"/><path class="cls-3" d="M10.52,2.36a.12.12,0,0,0,.05.08.41.41,0,0,0,.19.07,1.52,1.52,0,0,0,.69-.13c.05.33.09.58.13.75s.08.4.11.59a1.73,1.73,0,0,0,.08.46c0,.1.06.2.08.25v.12a.13.13,0,0,0,0,0,.35.35,0,0,0,.28.28h.06a.73.73,0,0,0,.24,0l.14-.05a.13.13,0,0,0,.11,0c.12-.13.12-.36,0-.74a1.23,1.23,0,0,0,0-.23,1.71,1.71,0,0,1-.06-.25v0a2.7,2.7,0,0,1-.15-.72c0-.3-.07-.54-.09-.72l.3,0a.32.32,0,0,0,.26-.13.6.6,0,0,0,0-.52.13.13,0,0,0-.14-.09,8.39,8.39,0,0,1-.87.12l-.69.07a2.91,2.91,0,0,0-.41.08.4.4,0,0,0-.29.21v0a.63.63,0,0,0,0,.24v0A2.13,2.13,0,0,1,10.52,2.36Z"/><path class="cls-1" d="M14.36,3.33c-.22.22-.37.37-.47.45a.44.44,0,0,0-.18.4.38.38,0,0,0,.27.32l.17,0a.66.66,0,0,0,.22,0,.78.78,0,0,0,.42-.26L15,4.06c0,.36,0,.4.05.42a.86.86,0,0,0,.07.12c0,.06.14.08.35.08s.31,0,.35-.12a.54.54,0,0,0,.07-.24c0-.08,0-.29.09-.72s.09-.8.11-1.23A2.07,2.07,0,0,0,16,1.49a1.17,1.17,0,0,0-.22-.33A1,1,0,0,0,15.18,1a1.82,1.82,0,0,0-1.06.34,1.07,1.07,0,0,0-.59.92,1.06,1.06,0,0,0,.26.77A1.25,1.25,0,0,0,14.36,3.33ZM14.56,2A1.19,1.19,0,0,1,15,1.78h.12a.18.18,0,0,1,.13.07.9.9,0,0,1,.08.45c0,.31,0,.4-.07.42A.35.35,0,0,1,15,2.8a1,1,0,0,1-.69-.26.26.26,0,0,1-.07-.26A.56.56,0,0,1,14.56,2Z"/><path class="cls-2" d="M14.36,3.33c-.22.22-.37.37-.47.45a.44.44,0,0,0-.18.4.38.38,0,0,0,.27.32l.17,0a.66.66,0,0,0,.22,0,.78.78,0,0,0,.42-.26L15,4.06c0,.36,0,.4.05.42a.86.86,0,0,0,.07.12c0,.06.14.08.35.08s.31,0,.35-.12a.54.54,0,0,0,.07-.24c0-.08,0-.29.09-.72s.09-.8.11-1.23A2.07,2.07,0,0,0,16,1.49a1.17,1.17,0,0,0-.22-.33A1,1,0,0,0,15.18,1a1.82,1.82,0,0,0-1.06.34,1.07,1.07,0,0,0-.59.92,1.06,1.06,0,0,0,.26.77A1.25,1.25,0,0,0,14.36,3.33ZM14.56,2A1.19,1.19,0,0,1,15,1.78h.12a.18.18,0,0,1,.13.07.9.9,0,0,1,.08.45c0,.31,0,.4-.07.42A.35.35,0,0,1,15,2.8a1,1,0,0,1-.69-.26.26.26,0,0,1-.07-.26A.56.56,0,0,1,14.56,2Z"/><path class="cls-3" d="M14.36,3.33c-.22.22-.37.37-.47.45a.44.44,0,0,0-.18.4.38.38,0,0,0,.27.32l.17,0a.66.66,0,0,0,.22,0,.78.78,0,0,0,.42-.26L15,4.06c0,.36,0,.4.05.42a.86.86,0,0,0,.07.12c0,.06.14.08.35.08s.31,0,.35-.12a.54.54,0,0,0,.07-.24c0-.08,0-.29.09-.72s.09-.8.11-1.23A2.07,2.07,0,0,0,16,1.49a1.17,1.17,0,0,0-.22-.33A1,1,0,0,0,15.18,1a1.82,1.82,0,0,0-1.06.34,1.07,1.07,0,0,0-.59.92,1.06,1.06,0,0,0,.26.77A1.25,1.25,0,0,0,14.36,3.33ZM14.56,2A1.19,1.19,0,0,1,15,1.78h.12a.18.18,0,0,1,.13.07.9.9,0,0,1,.08.45c0,.31,0,.4-.07.42A.35.35,0,0,1,15,2.8a1,1,0,0,1-.69-.26.26.26,0,0,1-.07-.26A.56.56,0,0,1,14.56,2Z"/><path class="cls-1" d="M17.78,3.56c0,.28-.22,1.28.21,1.39s.77-.74,1.08-1c0,.24,0,.48,0,.72s-.09,1,.39.94S19.9,5,20,4.48c0-.32.35-2,.05-2.21-.76-.51-.84.46-1.39.74,0-.54.35-1.64-.65-1.42-.27.06-.57,1-.73,1.21s-.92,1.28-.79,1.68C16.83,5.62,17.65,3.8,17.78,3.56Z"/><path class="cls-2" d="M17.78,3.56c0,.28-.22,1.28.21,1.39s.77-.74,1.08-1c0,.24,0,.48,0,.72s-.09,1,.39.94S19.9,5,20,4.48c0-.32.35-2,.05-2.21-.76-.51-.84.46-1.39.74,0-.54.35-1.64-.65-1.42-.27.06-.57,1-.73,1.21s-.92,1.28-.79,1.68C16.83,5.62,17.65,3.8,17.78,3.56Z"/><path class="cls-3" d="M17.78,3.56c0,.28-.22,1.28.21,1.39s.77-.74,1.08-1c0,.24,0,.48,0,.72s-.09,1,.39.94S19.9,5,20,4.48c0-.32.35-2,.05-2.21-.76-.51-.84.46-1.39.74,0-.54.35-1.64-.65-1.42-.27.06-.57,1-.73,1.21s-.92,1.28-.79,1.68C16.83,5.62,17.65,3.8,17.78,3.56Z"/><path class="cls-1" d="M19.08,4.68c0-.26-.06.54,0,0Z"/><path class="cls-2" d="M19.08,4.68c0-.26-.06.54,0,0Z"/><path class="cls-3" d="M19.08,4.68c0-.26-.06.54,0,0Z"/><path class="cls-1" d="M21.63,6.6a1.5,1.5,0,0,0,.9.16.86.86,0,0,0,.35-.3.36.36,0,0,0,0-.3c-.05-.11-.12-.17-.21-.16h-.32A.54.54,0,0,1,22,5.86a.27.27,0,0,1-.07-.36,1.21,1.21,0,0,1,.47-.42,1,1,0,0,1,.7-.14,1.22,1.22,0,0,0,.42,0,.45.45,0,0,0,.14-.08.87.87,0,0,0,.2-.33.48.48,0,0,0,0-.41c-.05-.08-.26-.15-.6-.21a1.5,1.5,0,0,0-1.11.31,2,2,0,0,0-.78.9,1.42,1.42,0,0,0-.09.85A1,1,0,0,0,21.63,6.6Z"/><path class="cls-2" d="M21.63,6.6a1.5,1.5,0,0,0,.9.16.86.86,0,0,0,.35-.3.36.36,0,0,0,0-.3c-.05-.11-.12-.17-.21-.16h-.32A.54.54,0,0,1,22,5.86a.27.27,0,0,1-.07-.36,1.21,1.21,0,0,1,.47-.42,1,1,0,0,1,.7-.14,1.22,1.22,0,0,0,.42,0,.45.45,0,0,0,.14-.08.87.87,0,0,0,.2-.33.48.48,0,0,0,0-.41c-.05-.08-.26-.15-.6-.21a1.5,1.5,0,0,0-1.11.31,2,2,0,0,0-.78.9,1.42,1.42,0,0,0-.09.85A1,1,0,0,0,21.63,6.6Z"/><path class="cls-3" d="M21.63,6.6a1.5,1.5,0,0,0,.9.16.86.86,0,0,0,.35-.3.36.36,0,0,0,0-.3c-.05-.11-.12-.17-.21-.16h-.32A.54.54,0,0,1,22,5.86a.27.27,0,0,1-.07-.36,1.21,1.21,0,0,1,.47-.42,1,1,0,0,1,.7-.14,1.22,1.22,0,0,0,.42,0,.45.45,0,0,0,.14-.08.87.87,0,0,0,.2-.33.48.48,0,0,0,0-.41c-.05-.08-.26-.15-.6-.21a1.5,1.5,0,0,0-1.11.31,2,2,0,0,0-.78.9,1.42,1.42,0,0,0-.09.85A1,1,0,0,0,21.63,6.6Z"/><path class="cls-1" d="M27.42,12.48A13,13,0,0,0,26.63,10,13.37,13.37,0,0,0,25.4,7.72a.65.65,0,1,0-1.08.73,12.12,12.12,0,0,1,1.12,2,11.81,11.81,0,0,1,.71,2.26,12.31,12.31,0,0,1,0,4.85,12.14,12.14,0,0,1-.7,2.26,12,12,0,0,1-1.11,2,.65.65,0,0,0,.18.91.62.62,0,0,0,.28.11.65.65,0,0,0,.63-.29,13.4,13.4,0,0,0,2-10.16Z"/><path class="cls-2" d="M27.42,12.48A13,13,0,0,0,26.63,10,13.37,13.37,0,0,0,25.4,7.72a.65.65,0,1,0-1.08.73,12.12,12.12,0,0,1,1.12,2,11.81,11.81,0,0,1,.71,2.26,12.31,12.31,0,0,1,0,4.85,12.14,12.14,0,0,1-.7,2.26,12,12,0,0,1-1.11,2,.65.65,0,0,0,.18.91.62.62,0,0,0,.28.11.65.65,0,0,0,.63-.29,13.4,13.4,0,0,0,2-10.16Z"/><path class="cls-3" d="M27.42,12.48A13,13,0,0,0,26.63,10,13.37,13.37,0,0,0,25.4,7.72a.65.65,0,1,0-1.08.73,12.12,12.12,0,0,1,1.12,2,11.81,11.81,0,0,1,.71,2.26,12.31,12.31,0,0,1,0,4.85,12.14,12.14,0,0,1-.7,2.26,12,12,0,0,1-1.11,2,.65.65,0,0,0,.18.91.62.62,0,0,0,.28.11.65.65,0,0,0,.63-.29,13.4,13.4,0,0,0,2-10.16Z"/><path class="cls-1" d="M4.38,22A12.08,12.08,0,0,1,3.24,10.56a12.15,12.15,0,0,1,1.11-2,.65.65,0,1,0-1.08-.73A13.54,13.54,0,0,0,2,10a13.26,13.26,0,0,0-.77,2.51,13.35,13.35,0,0,0,0,5.38,13.2,13.2,0,0,0,2,4.77.65.65,0,0,0,.91.17A.65.65,0,0,0,4.38,22Z"/><path class="cls-2" d="M4.38,22A12.08,12.08,0,0,1,3.24,10.56a12.15,12.15,0,0,1,1.11-2,.65.65,0,1,0-1.08-.73A13.54,13.54,0,0,0,2,10a13.26,13.26,0,0,0-.77,2.51,13.35,13.35,0,0,0,0,5.38,13.2,13.2,0,0,0,2,4.77.65.65,0,0,0,.91.17A.65.65,0,0,0,4.38,22Z"/><path class="cls-3" d="M4.38,22A12.08,12.08,0,0,1,3.24,10.56a12.15,12.15,0,0,1,1.11-2,.65.65,0,1,0-1.08-.73A13.54,13.54,0,0,0,2,10a13.26,13.26,0,0,0-.77,2.51,13.35,13.35,0,0,0,0,5.38,13.2,13.2,0,0,0,2,4.77.65.65,0,0,0,.91.17A.65.65,0,0,0,4.38,22Z"/><path class="cls-1" d="M7.57,24.8l.28-.58a0,0,0,0,0,0,0c-.2-.37-.38-.46-.52-.31L7,24a1,1,0,0,1-.6.15H6.38l.18-.36A3.76,3.76,0,0,0,7,23a0,0,0,0,0,0,0,.56.56,0,0,0-.19-.28.51.51,0,0,0-.48-.14,0,0,0,0,0,0,0c0,.06-.06.17-.34.37l-.56.32-.65.42-.69.48c-.1.1-.12.19-.09.27l.09.16a.41.41,0,0,0,.27.2h0c.51-.37.95-.69,1.3-.93a3.9,3.9,0,0,1-.44.86L5.15,25a1,1,0,0,0-.09.21.23.23,0,0,0,.06.25.28.28,0,0,0,.3,0A2.78,2.78,0,0,1,6.54,25a.07.07,0,0,1,.06,0c-.11.21-.24.46-.37.74-.32.48-.3.56-.26.6l.14.11h0a.45.45,0,0,1,.15.08l.06,0a.25.25,0,0,0,.2-.09c.09-.12.24-.32.43-.6a7,7,0,0,0,.56-1Z"/><path class="cls-2" d="M7.57,24.8l.28-.58a0,0,0,0,0,0,0c-.2-.37-.38-.46-.52-.31L7,24a1,1,0,0,1-.6.15H6.38l.18-.36A3.76,3.76,0,0,0,7,23a0,0,0,0,0,0,0,.56.56,0,0,0-.19-.28.51.51,0,0,0-.48-.14,0,0,0,0,0,0,0c0,.06-.06.17-.34.37l-.56.32-.65.42-.69.48c-.1.1-.12.19-.09.27l.09.16a.41.41,0,0,0,.27.2h0c.51-.37.95-.69,1.3-.93a3.9,3.9,0,0,1-.44.86L5.15,25a1,1,0,0,0-.09.21.23.23,0,0,0,.06.25.28.28,0,0,0,.3,0A2.78,2.78,0,0,1,6.54,25a.07.07,0,0,1,.06,0c-.11.21-.24.46-.37.74-.32.48-.3.56-.26.6l.14.11h0a.45.45,0,0,1,.15.08l.06,0a.25.25,0,0,0,.2-.09c.09-.12.24-.32.43-.6a7,7,0,0,0,.56-1Z"/><path class="cls-3" d="M7.57,24.8l.28-.58a0,0,0,0,0,0,0c-.2-.37-.38-.46-.52-.31L7,24a1,1,0,0,1-.6.15H6.38l.18-.36A3.76,3.76,0,0,0,7,23a0,0,0,0,0,0,0,.56.56,0,0,0-.19-.28.51.51,0,0,0-.48-.14,0,0,0,0,0,0,0c0,.06-.06.17-.34.37l-.56.32-.65.42-.69.48c-.1.1-.12.19-.09.27l.09.16a.41.41,0,0,0,.27.2h0c.51-.37.95-.69,1.3-.93a3.9,3.9,0,0,1-.44.86L5.15,25a1,1,0,0,0-.09.21.23.23,0,0,0,.06.25.28.28,0,0,0,.3,0A2.78,2.78,0,0,1,6.54,25a.07.07,0,0,1,.06,0c-.11.21-.24.46-.37.74-.32.48-.3.56-.26.6l.14.11h0a.45.45,0,0,1,.15.08l.06,0a.25.25,0,0,0,.2-.09c.09-.12.24-.32.43-.6a7,7,0,0,0,.56-1Z"/><path class="cls-1" d="M10.09,24.86a4.12,4.12,0,0,0-.39-.24l-.45-.21q-.31-.13-.59.28A9.09,9.09,0,0,0,8,25.76a11.37,11.37,0,0,0-.51,1.15q-.19.5,0,.64a4.78,4.78,0,0,0,.75.32c.35.12.58.14.7,0a.56.56,0,0,0,.19-.41.31.31,0,0,0-.16-.35l-.6-.23a1.45,1.45,0,0,1,.14-.33c.36.15.57.18.64.1a1.3,1.3,0,0,0,.17-.3.43.43,0,0,0,0-.28c0-.08-.21-.17-.57-.29.1-.16.18-.31.24-.43l.55.27a.51.51,0,0,0,.33.05.29.29,0,0,0,.21-.16,1.88,1.88,0,0,0,.12-.33C10.35,25.07,10.28,25,10.09,24.86Z"/><path class="cls-2" d="M10.09,24.86a4.12,4.12,0,0,0-.39-.24l-.45-.21q-.31-.13-.59.28A9.09,9.09,0,0,0,8,25.76a11.37,11.37,0,0,0-.51,1.15q-.19.5,0,.64a4.78,4.78,0,0,0,.75.32c.35.12.58.14.7,0a.56.56,0,0,0,.19-.41.31.31,0,0,0-.16-.35l-.6-.23a1.45,1.45,0,0,1,.14-.33c.36.15.57.18.64.1a1.3,1.3,0,0,0,.17-.3.43.43,0,0,0,0-.28c0-.08-.21-.17-.57-.29.1-.16.18-.31.24-.43l.55.27a.51.51,0,0,0,.33.05.29.29,0,0,0,.21-.16,1.88,1.88,0,0,0,.12-.33C10.35,25.07,10.28,25,10.09,24.86Z"/><path class="cls-3" d="M10.09,24.86a4.12,4.12,0,0,0-.39-.24l-.45-.21q-.31-.13-.59.28A9.09,9.09,0,0,0,8,25.76a11.37,11.37,0,0,0-.51,1.15q-.19.5,0,.64a4.78,4.78,0,0,0,.75.32c.35.12.58.14.7,0a.56.56,0,0,0,.19-.41.31.31,0,0,0-.16-.35l-.6-.23a1.45,1.45,0,0,1,.14-.33c.36.15.57.18.64.1a1.3,1.3,0,0,0,.17-.3.43.43,0,0,0,0-.28c0-.08-.21-.17-.57-.29.1-.16.18-.31.24-.43l.55.27a.51.51,0,0,0,.33.05.29.29,0,0,0,.21-.16,1.88,1.88,0,0,0,.12-.33C10.35,25.07,10.28,25,10.09,24.86Z"/><path class="cls-1" d="M11.83,25.6a1.68,1.68,0,0,0-1.07.7,2,2,0,0,0-.48,1.18,1.45,1.45,0,0,0,.25.9,1.15,1.15,0,0,0,.69.43,1.78,1.78,0,0,0,1-.14.84.84,0,0,0,.25-.43.37.37,0,0,0-.14-.29.28.28,0,0,0-.29-.09l-.34.12a.65.65,0,0,1-.45,0,.3.3,0,0,1-.22-.34,1.27,1.27,0,0,1,.33-.59,1.1,1.1,0,0,1,.7-.39,1.53,1.53,0,0,0,.47-.1.53.53,0,0,0,.12-.12.83.83,0,0,0,.08-.4.53.53,0,0,0-.2-.4A1.35,1.35,0,0,0,11.83,25.6Z"/><path class="cls-2" d="M11.83,25.6a1.68,1.68,0,0,0-1.07.7,2,2,0,0,0-.48,1.18,1.45,1.45,0,0,0,.25.9,1.15,1.15,0,0,0,.69.43,1.78,1.78,0,0,0,1-.14.84.84,0,0,0,.25-.43.37.37,0,0,0-.14-.29.28.28,0,0,0-.29-.09l-.34.12a.65.65,0,0,1-.45,0,.3.3,0,0,1-.22-.34,1.27,1.27,0,0,1,.33-.59,1.1,1.1,0,0,1,.7-.39,1.53,1.53,0,0,0,.47-.1.53.53,0,0,0,.12-.12.83.83,0,0,0,.08-.4.53.53,0,0,0-.2-.4A1.35,1.35,0,0,0,11.83,25.6Z"/><path class="cls-3" d="M11.83,25.6a1.68,1.68,0,0,0-1.07.7,2,2,0,0,0-.48,1.18,1.45,1.45,0,0,0,.25.9,1.15,1.15,0,0,0,.69.43,1.78,1.78,0,0,0,1-.14.84.84,0,0,0,.25-.43.37.37,0,0,0-.14-.29.28.28,0,0,0-.29-.09l-.34.12a.65.65,0,0,1-.45,0,.3.3,0,0,1-.22-.34,1.27,1.27,0,0,1,.33-.59,1.1,1.1,0,0,1,.7-.39,1.53,1.53,0,0,0,.47-.1.53.53,0,0,0,.12-.12.83.83,0,0,0,.08-.4.53.53,0,0,0-.2-.4A1.35,1.35,0,0,0,11.83,25.6Z"/><path class="cls-1" d="M15.12,26.07a.92.92,0,0,0-.53-.12,1.65,1.65,0,0,0-.94.32.93.93,0,0,0-.51.81.92.92,0,0,0,.25.67A1.12,1.12,0,0,0,14,28l-.45.45a.36.36,0,0,0-.14.34.33.33,0,0,0,.24.25l.13,0a.65.65,0,0,0,.21,0,.69.69,0,0,0,.36-.24,1.7,1.7,0,0,0,.21-.26,1.5,1.5,0,0,0,.06.44l.07.1s.11.06.29,0,.26,0,.3-.1a.47.47,0,0,0,.05-.2c0-.08,0-.3.06-.64s.06-.72.07-1.09a1.78,1.78,0,0,0-.08-.77A1.07,1.07,0,0,0,15.12,26.07Zm-.35,1.39a.36.36,0,0,1-.25.09.93.93,0,0,1-.36-.06.91.91,0,0,1-.29-.17.26.26,0,0,1-.08-.25.5.5,0,0,1,.26-.3,1.07,1.07,0,0,1,.44-.18h.12a.19.19,0,0,1,.13.07.77.77,0,0,1,.09.41C14.84,27.33,14.8,27.43,14.77,27.47Z"/><path class="cls-2" d="M15.12,26.07a.92.92,0,0,0-.53-.12,1.65,1.65,0,0,0-.94.32.93.93,0,0,0-.51.81.92.92,0,0,0,.25.67A1.12,1.12,0,0,0,14,28l-.45.45a.36.36,0,0,0-.14.34.33.33,0,0,0,.24.25l.13,0a.65.65,0,0,0,.21,0,.69.69,0,0,0,.36-.24,1.7,1.7,0,0,0,.21-.26,1.5,1.5,0,0,0,.06.44l.07.1s.11.06.29,0,.26,0,.3-.1a.47.47,0,0,0,.05-.2c0-.08,0-.3.06-.64s.06-.72.07-1.09a1.78,1.78,0,0,0-.08-.77A1.07,1.07,0,0,0,15.12,26.07Zm-.35,1.39a.36.36,0,0,1-.25.09.93.93,0,0,1-.36-.06.91.91,0,0,1-.29-.17.26.26,0,0,1-.08-.25.5.5,0,0,1,.26-.3,1.07,1.07,0,0,1,.44-.18h.12a.19.19,0,0,1,.13.07.77.77,0,0,1,.09.41C14.84,27.33,14.8,27.43,14.77,27.47Z"/><path class="cls-3" d="M15.12,26.07a.92.92,0,0,0-.53-.12,1.65,1.65,0,0,0-.94.32.93.93,0,0,0-.51.81.92.92,0,0,0,.25.67A1.12,1.12,0,0,0,14,28l-.45.45a.36.36,0,0,0-.14.34.33.33,0,0,0,.24.25l.13,0a.65.65,0,0,0,.21,0,.69.69,0,0,0,.36-.24,1.7,1.7,0,0,0,.21-.26,1.5,1.5,0,0,0,.06.44l.07.1s.11.06.29,0,.26,0,.3-.1a.47.47,0,0,0,.05-.2c0-.08,0-.3.06-.64s.06-.72.07-1.09a1.78,1.78,0,0,0-.08-.77A1.07,1.07,0,0,0,15.12,26.07Zm-.35,1.39a.36.36,0,0,1-.25.09.93.93,0,0,1-.36-.06.91.91,0,0,1-.29-.17.26.26,0,0,1-.08-.25.5.5,0,0,1,.26-.3,1.07,1.07,0,0,1,.44-.18h.12a.19.19,0,0,1,.13.07.77.77,0,0,1,.09.41C14.84,27.33,14.8,27.43,14.77,27.47Z"/><path class="cls-1" d="M19.13,27.95a.31.31,0,0,0-.38-.27c-.09-.46-.21-.93-.34-1.41s-.25-.73-.34-.77a.53.53,0,0,0-.33,0c-.13,0-.19.08-.2.16a2.06,2.06,0,0,0,0,.35c0,.16.17.73.44,1.69a2.85,2.85,0,0,1-1.07.44c-.18-.69-.3-1.21-.36-1.57s-.23-.49-.51-.41a.36.36,0,0,0-.28.52A12,12,0,0,1,16.14,28c.13.63.29,1,.45,1a2.84,2.84,0,0,0,.76-.09,5.82,5.82,0,0,0,.82-.24l.42-.18c.06,0,.11,0,.12.11a.28.28,0,0,0,.1.22.35.35,0,0,0,.19,0,.38.38,0,0,0,.21-.06.15.15,0,0,0,.08-.16c0-.07,0-.14-.05-.23Z"/><path class="cls-2" d="M19.13,27.95a.31.31,0,0,0-.38-.27c-.09-.46-.21-.93-.34-1.41s-.25-.73-.34-.77a.53.53,0,0,0-.33,0c-.13,0-.19.08-.2.16a2.06,2.06,0,0,0,0,.35c0,.16.17.73.44,1.69a2.85,2.85,0,0,1-1.07.44c-.18-.69-.3-1.21-.36-1.57s-.23-.49-.51-.41a.36.36,0,0,0-.28.52A12,12,0,0,1,16.14,28c.13.63.29,1,.45,1a2.84,2.84,0,0,0,.76-.09,5.82,5.82,0,0,0,.82-.24l.42-.18c.06,0,.11,0,.12.11a.28.28,0,0,0,.1.22.35.35,0,0,0,.19,0,.38.38,0,0,0,.21-.06.15.15,0,0,0,.08-.16c0-.07,0-.14-.05-.23Z"/><path class="cls-3" d="M19.13,27.95a.31.31,0,0,0-.38-.27c-.09-.46-.21-.93-.34-1.41s-.25-.73-.34-.77a.53.53,0,0,0-.33,0c-.13,0-.19.08-.2.16a2.06,2.06,0,0,0,0,.35c0,.16.17.73.44,1.69a2.85,2.85,0,0,1-1.07.44c-.18-.69-.3-1.21-.36-1.57s-.23-.49-.51-.41a.36.36,0,0,0-.28.52A12,12,0,0,1,16.14,28c.13.63.29,1,.45,1a2.84,2.84,0,0,0,.76-.09,5.82,5.82,0,0,0,.82-.24l.42-.18c.06,0,.11,0,.12.11a.28.28,0,0,0,.1.22.35.35,0,0,0,.19,0,.38.38,0,0,0,.21-.06.15.15,0,0,0,.08-.16c0-.07,0-.14-.05-.23Z"/><path class="cls-1" d="M21.08,26.38c-.11.07-.29.2-.52.38a1.89,1.89,0,0,1-.2-.3c.32-.22.46-.38.43-.48a1.12,1.12,0,0,0-.16-.3.45.45,0,0,0-.22-.19c-.08,0-.26.08-.56.33-.08-.17-.16-.32-.23-.43l.52-.32a.49.49,0,0,0,.22-.25.29.29,0,0,0,0-.27,2.35,2.35,0,0,0-.22-.28c-.1-.11-.24-.11-.42,0l-.42.2-.42.27c-.18.12-.21.34-.08.65a9.25,9.25,0,0,0,.56,1.09A11.13,11.13,0,0,0,20,27.52q.32.43.56.31a4.89,4.89,0,0,0,.67-.46c.29-.23.43-.41.42-.56a.55.55,0,0,0-.23-.38A.31.31,0,0,0,21.08,26.38Z"/><path class="cls-2" d="M21.08,26.38c-.11.07-.29.2-.52.38a1.89,1.89,0,0,1-.2-.3c.32-.22.46-.38.43-.48a1.12,1.12,0,0,0-.16-.3.45.45,0,0,0-.22-.19c-.08,0-.26.08-.56.33-.08-.17-.16-.32-.23-.43l.52-.32a.49.49,0,0,0,.22-.25.29.29,0,0,0,0-.27,2.35,2.35,0,0,0-.22-.28c-.1-.11-.24-.11-.42,0l-.42.2-.42.27c-.18.12-.21.34-.08.65a9.25,9.25,0,0,0,.56,1.09A11.13,11.13,0,0,0,20,27.52q.32.43.56.31a4.89,4.89,0,0,0,.67-.46c.29-.23.43-.41.42-.56a.55.55,0,0,0-.23-.38A.31.31,0,0,0,21.08,26.38Z"/><path class="cls-3" d="M21.08,26.38c-.11.07-.29.2-.52.38a1.89,1.89,0,0,1-.2-.3c.32-.22.46-.38.43-.48a1.12,1.12,0,0,0-.16-.3.45.45,0,0,0-.22-.19c-.08,0-.26.08-.56.33-.08-.17-.16-.32-.23-.43l.52-.32a.49.49,0,0,0,.22-.25.29.29,0,0,0,0-.27,2.35,2.35,0,0,0-.22-.28c-.1-.11-.24-.11-.42,0l-.42.2-.42.27c-.18.12-.21.34-.08.65a9.25,9.25,0,0,0,.56,1.09A11.13,11.13,0,0,0,20,27.52q.32.43.56.31a4.89,4.89,0,0,0,.67-.46c.29-.23.43-.41.42-.56a.55.55,0,0,0-.23-.38A.31.31,0,0,0,21.08,26.38Z"/><path class="cls-1" d="M23.84,23.8a.92.92,0,0,0-.59-.18c0-.15-.08-.35-.31-.58a1,1,0,0,0-.66-.35,1.12,1.12,0,0,0-.62.21,2.89,2.89,0,0,0-.56.52q-.17.35.4,1.12a6.84,6.84,0,0,0,1,1.15.76.76,0,0,0,.81.22,2.53,2.53,0,0,0,.78-.69c.29-.35.35-.64.2-.88A2.07,2.07,0,0,0,23.84,23.8Zm-1.25-.06a.56.56,0,0,1-.21.29c-.11.09-.19.1-.25.06l-.35-.4c0-.08,0-.18.15-.28s.25-.15.34-.12a.61.61,0,0,1,.25.16A.28.28,0,0,1,22.59,23.74ZM23.41,25c-.22.22-.35.27-.38.16a3.08,3.08,0,0,1-.32-.35.16.16,0,0,1,0-.19l.29-.26a.4.4,0,0,1,.48.1C23.66,24.56,23.63,24.74,23.41,25Z"/><path class="cls-2" d="M23.84,23.8a.92.92,0,0,0-.59-.18c0-.15-.08-.35-.31-.58a1,1,0,0,0-.66-.35,1.12,1.12,0,0,0-.62.21,2.89,2.89,0,0,0-.56.52q-.17.35.4,1.12a6.84,6.84,0,0,0,1,1.15.76.76,0,0,0,.81.22,2.53,2.53,0,0,0,.78-.69c.29-.35.35-.64.2-.88A2.07,2.07,0,0,0,23.84,23.8Zm-1.25-.06a.56.56,0,0,1-.21.29c-.11.09-.19.1-.25.06l-.35-.4c0-.08,0-.18.15-.28s.25-.15.34-.12a.61.61,0,0,1,.25.16A.28.28,0,0,1,22.59,23.74ZM23.41,25c-.22.22-.35.27-.38.16a3.08,3.08,0,0,1-.32-.35.16.16,0,0,1,0-.19l.29-.26a.4.4,0,0,1,.48.1C23.66,24.56,23.63,24.74,23.41,25Z"/><path class="cls-3" d="M23.84,23.8a.92.92,0,0,0-.59-.18c0-.15-.08-.35-.31-.58a1,1,0,0,0-.66-.35,1.12,1.12,0,0,0-.62.21,2.89,2.89,0,0,0-.56.52q-.17.35.4,1.12a6.84,6.84,0,0,0,1,1.15.76.76,0,0,0,.81.22,2.53,2.53,0,0,0,.78-.69c.29-.35.35-.64.2-.88A2.07,2.07,0,0,0,23.84,23.8Zm-1.25-.06a.56.56,0,0,1-.21.29c-.11.09-.19.1-.25.06l-.35-.4c0-.08,0-.18.15-.28s.25-.15.34-.12a.61.61,0,0,1,.25.16A.28.28,0,0,1,22.59,23.74ZM23.41,25c-.22.22-.35.27-.38.16a3.08,3.08,0,0,1-.32-.35.16.16,0,0,1,0-.19l.29-.26a.4.4,0,0,1,.48.1C23.66,24.56,23.63,24.74,23.41,25Z"/><path class="cls-1" d="M12,7.18a1.44,1.44,0,0,0-1.2-.81h-.12a1.43,1.43,0,0,0-1,.43,1.46,1.46,0,0,0,.09,2.13A1,1,0,0,1,10,10a2.39,2.39,0,0,0-.15.86,3.21,3.21,0,0,0,2.07,2.73,6,6,0,0,0,1.65.47,7.41,7.41,0,0,0,1.52,0c2.11-.27,3.73-1.66,3.72-3.25a2.48,2.48,0,0,0-.16-.86,1,1,0,0,1,.26-1.06,1.46,1.46,0,1,0-2.28-1.72,1,1,0,0,1-1.05.52,6,6,0,0,0-2.5,0A1,1,0,0,1,12,7.18Z"/><path class="cls-2" d="M12,7.18a1.44,1.44,0,0,0-1.2-.81h-.12a1.43,1.43,0,0,0-1,.43,1.46,1.46,0,0,0,.09,2.13A1,1,0,0,1,10,10a2.39,2.39,0,0,0-.15.86,3.21,3.21,0,0,0,2.07,2.73,6,6,0,0,0,1.65.47,7.41,7.41,0,0,0,1.52,0c2.11-.27,3.73-1.66,3.72-3.25a2.48,2.48,0,0,0-.16-.86,1,1,0,0,1,.26-1.06,1.46,1.46,0,1,0-2.28-1.72,1,1,0,0,1-1.05.52,6,6,0,0,0-2.5,0A1,1,0,0,1,12,7.18Z"/><path class="cls-3" d="M12,7.18a1.44,1.44,0,0,0-1.2-.81h-.12a1.43,1.43,0,0,0-1,.43,1.46,1.46,0,0,0,.09,2.13A1,1,0,0,1,10,10a2.39,2.39,0,0,0-.15.86,3.21,3.21,0,0,0,2.07,2.73,6,6,0,0,0,1.65.47,7.41,7.41,0,0,0,1.52,0c2.11-.27,3.73-1.66,3.72-3.25a2.48,2.48,0,0,0-.16-.86,1,1,0,0,1,.26-1.06,1.46,1.46,0,1,0-2.28-1.72,1,1,0,0,1-1.05.52,6,6,0,0,0-2.5,0A1,1,0,0,1,12,7.18Z"/><path class="cls-1" d="M19.27,23.23a2.31,2.31,0,0,0,1.32-1.16l.22-.45a2.26,2.26,0,0,0,.12-1.75,2,2,0,0,0-1.05-1.17l-.07,0-.23-.07a2.5,2.5,0,0,1-.4-.13l-.06,0h0a.44.44,0,0,1-.27-.42c0-.41.62-.65.62-.65.64-.36,2.67-1.27,3-2a2.28,2.28,0,0,0-.83-2.42c-1.28-1-3.48.62-4.92,1.21a5.94,5.94,0,0,1-2.3.45,6.4,6.4,0,0,1-2.42-.49c-1.44-.62-3.58-2.16-4.83-1.18a2.28,2.28,0,0,0-.83,2.42c.29.74,2.32,1.65,3,2,0,0,.62.24.62.65a.44.44,0,0,1-.27.42h0l-.06,0a2.5,2.5,0,0,1-.4.13l-.23.07-.07,0a2,2,0,0,0-1.05,1.17,2.26,2.26,0,0,0,.12,1.75l.22.45a2.31,2.31,0,0,0,1.32,1.16A2.06,2.06,0,0,0,11,23.12L13.23,22a5.63,5.63,0,0,0,1.08.11A6.69,6.69,0,0,0,15.47,22l2.22,1.13A2.06,2.06,0,0,0,19.27,23.23Z"/><path class="cls-2" d="M19.27,23.23a2.31,2.31,0,0,0,1.32-1.16l.22-.45a2.26,2.26,0,0,0,.12-1.75,2,2,0,0,0-1.05-1.17l-.07,0-.23-.07a2.5,2.5,0,0,1-.4-.13l-.06,0h0a.44.44,0,0,1-.27-.42c0-.41.62-.65.62-.65.64-.36,2.67-1.27,3-2a2.28,2.28,0,0,0-.83-2.42c-1.28-1-3.48.62-4.92,1.21a5.94,5.94,0,0,1-2.3.45,6.4,6.4,0,0,1-2.42-.49c-1.44-.62-3.58-2.16-4.83-1.18a2.28,2.28,0,0,0-.83,2.42c.29.74,2.32,1.65,3,2,0,0,.62.24.62.65a.44.44,0,0,1-.27.42h0l-.06,0a2.5,2.5,0,0,1-.4.13l-.23.07-.07,0a2,2,0,0,0-1.05,1.17,2.26,2.26,0,0,0,.12,1.75l.22.45a2.31,2.31,0,0,0,1.32,1.16A2.06,2.06,0,0,0,11,23.12L13.23,22a5.63,5.63,0,0,0,1.08.11A6.69,6.69,0,0,0,15.47,22l2.22,1.13A2.06,2.06,0,0,0,19.27,23.23Z"/><path class="cls-3" d="M19.27,23.23a2.31,2.31,0,0,0,1.32-1.16l.22-.45a2.26,2.26,0,0,0,.12-1.75,2,2,0,0,0-1.05-1.17l-.07,0-.23-.07a2.5,2.5,0,0,1-.4-.13l-.06,0h0a.44.44,0,0,1-.27-.42c0-.41.62-.65.62-.65.64-.36,2.67-1.27,3-2a2.28,2.28,0,0,0-.83-2.42c-1.28-1-3.48.62-4.92,1.21a5.94,5.94,0,0,1-2.3.45,6.4,6.4,0,0,1-2.42-.49c-1.44-.62-3.58-2.16-4.83-1.18a2.28,2.28,0,0,0-.83,2.42c.29.74,2.32,1.65,3,2,0,0,.62.24.62.65a.44.44,0,0,1-.27.42h0l-.06,0a2.5,2.5,0,0,1-.4.13l-.23.07-.07,0a2,2,0,0,0-1.05,1.17,2.26,2.26,0,0,0,.12,1.75l.22.45a2.31,2.31,0,0,0,1.32,1.16A2.06,2.06,0,0,0,11,23.12L13.23,22a5.63,5.63,0,0,0,1.08.11A6.69,6.69,0,0,0,15.47,22l2.22,1.13A2.06,2.06,0,0,0,19.27,23.23Z"/><path class="cls-4" d="M6.08,6.49a.36.36,0,0,0-.15.46,4,4,0,0,0,.2.38l.17.26a.19.19,0,0,0,.13.07.45.45,0,0,0,.27-.08L7,7.42c.14-.1,0-.3,0-.39l-.08-.16L8,6.1a1.27,1.27,0,0,0,.26.29c.1.07.23,0,.4-.07a.72.72,0,0,0,.16-.14c.06-.07.1-.19,0-.38l-.17-.27-.16-.25a.25.25,0,0,0-.25-.14L7.68,4a3.18,3.18,0,0,0-.47-.71.51.51,0,0,0-.67-.09l-.62.37-.56.35c-.3.19-.1.68.08,1A13.13,13.13,0,0,1,6.08,6.49Zm.24-2.22a.59.59,0,0,1,.34-.11.23.23,0,0,1,.17.14l.17.3v0H7l.24.4a1.48,1.48,0,0,1,.14.29s0,0-.18.13l-.34.22a.28.28,0,0,1-.18.08c-.07,0-.15-.11-.21-.28L6.17,4.6a.69.69,0,0,1,0-.21Z"/><path class="cls-4" d="M9.05,5.07c.15.33.31.46.48.42a5.14,5.14,0,0,0,.75-.31c.33-.16.51-.32.52-.46a.54.54,0,0,0-.15-.42.31.31,0,0,0-.36-.13l-.59.26a1.39,1.39,0,0,1-.13-.33c.36-.15.53-.28.52-.39A1.22,1.22,0,0,0,10,3.39a.44.44,0,0,0-.17-.23c-.07,0-.27,0-.61.2,0-.19-.09-.35-.14-.47l.58-.2a.5.5,0,0,0,.27-.19.29.29,0,0,0,0-.27,2.09,2.09,0,0,0-.16-.32c-.07-.12-.21-.16-.41-.09L9,1.93l-.47.18c-.2.08-.27.29-.21.62A9.72,9.72,0,0,0,8.6,3.9,12.45,12.45,0,0,0,9.05,5.07Z"/><path class="cls-4" d="M10.52,2.36a.12.12,0,0,0,.05.08.41.41,0,0,0,.19.07,1.52,1.52,0,0,0,.69-.13c.05.33.09.58.13.75s.08.4.11.59a1.74,1.74,0,0,0,.08.46c0,.1.06.2.08.25v.12a.13.13,0,0,0,0,0,.35.35,0,0,0,.28.28h.06a.73.73,0,0,0,.24,0l.14-.05a.13.13,0,0,0,.11,0c.12-.13.12-.36,0-.74a1.24,1.24,0,0,0,0-.23,1.7,1.7,0,0,1-.06-.25v0a2.69,2.69,0,0,1-.15-.72c0-.3-.07-.54-.09-.72l.3,0a.32.32,0,0,0,.26-.13.6.6,0,0,0,0-.52.13.13,0,0,0-.14-.09,8.39,8.39,0,0,1-.87.12l-.69.07a2.9,2.9,0,0,0-.41.08.4.4,0,0,0-.29.21v0a.63.63,0,0,0,0,.24v0A2.13,2.13,0,0,1,10.52,2.36Z"/><path class="cls-4" d="M14.36,3.33c-.22.22-.37.37-.47.45a.44.44,0,0,0-.18.4.38.38,0,0,0,.27.32l.17,0a.67.67,0,0,0,.22,0,.78.78,0,0,0,.42-.26L15,4.06c0,.36,0,.4.05.42a.87.87,0,0,0,.07.12c0,.06.14.08.35.08s.31,0,.35-.12a.54.54,0,0,0,.07-.24c0-.08,0-.29.09-.72s.09-.8.11-1.23A2.07,2.07,0,0,0,16,1.49a1.17,1.17,0,0,0-.22-.33A1,1,0,0,0,15.18,1a1.82,1.82,0,0,0-1.06.34,1.07,1.07,0,0,0-.59.92,1.06,1.06,0,0,0,.26.77A1.25,1.25,0,0,0,14.36,3.33ZM14.56,2A1.19,1.19,0,0,1,15,1.78h.12a.18.18,0,0,1,.13.07.9.9,0,0,1,.08.45c0,.31,0,.4-.07.42A.35.35,0,0,1,15,2.8a1,1,0,0,1-.69-.26.26.26,0,0,1-.07-.26A.56.56,0,0,1,14.56,2Z"/><path class="cls-4" d="M17.78,3.56c0,.28-.22,1.28.21,1.39s.77-.74,1.08-1c0,.24,0,.48,0,.72s-.09,1,.39.94S19.9,5,20,4.48c0-.32.35-2,.05-2.21-.76-.51-.84.46-1.39.74,0-.54.35-1.64-.65-1.42-.27.06-.57,1-.73,1.21s-.92,1.28-.79,1.68C16.83,5.62,17.65,3.8,17.78,3.56Z"/><path class="cls-4" d="M19.08,4.68c0-.26-.06.54,0,0Z"/><path class="cls-4" d="M21.63,6.6a1.5,1.5,0,0,0,.9.16.86.86,0,0,0,.35-.3.36.36,0,0,0,0-.3c-.05-.11-.12-.17-.21-.16h-.32A.54.54,0,0,1,22,5.86a.27.27,0,0,1-.07-.36,1.21,1.21,0,0,1,.47-.42,1,1,0,0,1,.7-.14,1.22,1.22,0,0,0,.42,0,.45.45,0,0,0,.14-.08.87.87,0,0,0,.2-.33.48.48,0,0,0,0-.41c-.05-.08-.26-.15-.6-.21a1.5,1.5,0,0,0-1.11.31,2,2,0,0,0-.78.9,1.42,1.42,0,0,0-.09.85A1,1,0,0,0,21.63,6.6Z"/><path class="cls-4" d="M27.42,12.48A13,13,0,0,0,26.63,10,13.36,13.36,0,0,0,25.4,7.72a.65.65,0,1,0-1.08.73,12.13,12.13,0,0,1,1.12,2,11.82,11.82,0,0,1,.71,2.26,12.31,12.31,0,0,1,0,4.85,12.13,12.13,0,0,1-.7,2.26,12,12,0,0,1-1.11,2,.65.65,0,0,0,.18.91.62.62,0,0,0,.28.11.65.65,0,0,0,.63-.29,13.4,13.4,0,0,0,2-10.16Z"/><path class="cls-4" d="M4.38,22A12.08,12.08,0,0,1,3.24,10.56a12.15,12.15,0,0,1,1.11-2,.65.65,0,1,0-1.08-.73A13.54,13.54,0,0,0,2,10a13.26,13.26,0,0,0-.77,2.51,13.35,13.35,0,0,0,0,5.38,13.2,13.2,0,0,0,2,4.77.65.65,0,0,0,.91.17A.65.65,0,0,0,4.38,22Z"/><path class="cls-4" d="M7.57,24.8l.28-.58a0,0,0,0,0,0,0c-.2-.37-.38-.46-.52-.31L7,24a1,1,0,0,1-.6.15H6.38l.18-.36A3.76,3.76,0,0,0,7,23a0,0,0,0,0,0,0,.57.57,0,0,0-.19-.28.51.51,0,0,0-.48-.14,0,0,0,0,0,0,0c0,.06-.06.17-.34.37l-.56.32-.65.42-.69.48c-.1.1-.12.19-.09.27l.09.16a.41.41,0,0,0,.27.2h0c.51-.37.95-.69,1.3-.93a3.91,3.91,0,0,1-.44.86L5.15,25a1,1,0,0,0-.09.21.23.23,0,0,0,.06.25.28.28,0,0,0,.3,0A2.78,2.78,0,0,1,6.54,25a.07.07,0,0,1,.06,0c-.11.21-.24.46-.37.74-.32.48-.3.56-.26.6l.14.11h0a.45.45,0,0,1,.15.08l.06,0a.25.25,0,0,0,.2-.09c.09-.12.24-.32.43-.6a7,7,0,0,0,.56-1Z"/><path class="cls-4" d="M10.09,24.86a4.11,4.11,0,0,0-.39-.24l-.45-.21q-.31-.13-.59.28A9.07,9.07,0,0,0,8,25.76a11.37,11.37,0,0,0-.51,1.15q-.19.5,0,.64a4.78,4.78,0,0,0,.75.32c.35.12.58.14.7,0a.56.56,0,0,0,.19-.41.31.31,0,0,0-.16-.35l-.6-.23a1.45,1.45,0,0,1,.14-.33c.36.15.57.18.64.1a1.3,1.3,0,0,0,.17-.3.43.43,0,0,0,0-.28c0-.08-.21-.17-.57-.29.1-.16.18-.31.24-.43l.55.27a.51.51,0,0,0,.33.05.29.29,0,0,0,.21-.16,1.88,1.88,0,0,0,.12-.33C10.35,25.07,10.28,25,10.09,24.86Z"/><path class="cls-4" d="M11.83,25.6a1.68,1.68,0,0,0-1.07.7,2,2,0,0,0-.48,1.18,1.45,1.45,0,0,0,.25.9,1.15,1.15,0,0,0,.69.43,1.78,1.78,0,0,0,1-.14.84.84,0,0,0,.25-.43.37.37,0,0,0-.14-.29.28.28,0,0,0-.29-.09l-.34.12a.65.65,0,0,1-.45,0,.3.3,0,0,1-.22-.34,1.27,1.27,0,0,1,.33-.59,1.1,1.1,0,0,1,.7-.39,1.52,1.52,0,0,0,.47-.1.53.53,0,0,0,.12-.12.83.83,0,0,0,.08-.4.53.53,0,0,0-.2-.4A1.35,1.35,0,0,0,11.83,25.6Z"/><path class="cls-4" d="M15.12,26.07a.92.92,0,0,0-.53-.12,1.65,1.65,0,0,0-.94.32.93.93,0,0,0-.51.81.92.92,0,0,0,.25.67A1.13,1.13,0,0,0,14,28l-.45.45a.36.36,0,0,0-.14.34.33.33,0,0,0,.24.25l.13,0a.65.65,0,0,0,.21,0,.69.69,0,0,0,.36-.24,1.71,1.71,0,0,0,.21-.26,1.51,1.51,0,0,0,.06.44l.07.1s.11.06.29,0,.26,0,.3-.1a.47.47,0,0,0,.05-.2c0-.08,0-.3.06-.64s.06-.72.07-1.09a1.78,1.78,0,0,0-.08-.77A1.07,1.07,0,0,0,15.12,26.07Zm-.35,1.39a.36.36,0,0,1-.25.09.93.93,0,0,1-.36-.06.91.91,0,0,1-.29-.17.26.26,0,0,1-.08-.25.5.5,0,0,1,.26-.3,1.07,1.07,0,0,1,.44-.18h.12a.19.19,0,0,1,.13.07.77.77,0,0,1,.09.41C14.84,27.33,14.8,27.43,14.77,27.47Z"/><path class="cls-4" d="M19.13,27.95a.31.31,0,0,0-.38-.27c-.09-.46-.21-.93-.34-1.41s-.25-.73-.34-.77a.53.53,0,0,0-.33,0c-.13,0-.19.08-.2.16a2.06,2.06,0,0,0,0,.35c0,.16.17.73.44,1.69a2.85,2.85,0,0,1-1.07.44c-.18-.69-.3-1.21-.36-1.57s-.23-.49-.51-.41a.36.36,0,0,0-.28.52A12,12,0,0,1,16.14,28c.13.63.28,1,.45,1a2.84,2.84,0,0,0,.76-.09,5.83,5.83,0,0,0,.82-.24l.42-.18c.06,0,.11,0,.12.11a.28.28,0,0,0,.1.22.35.35,0,0,0,.19,0,.38.38,0,0,0,.21-.06.15.15,0,0,0,.08-.16c0-.07,0-.14-.05-.23Z"/><path class="cls-4" d="M21.08,26.38c-.11.07-.29.2-.52.38a1.9,1.9,0,0,1-.2-.3c.32-.22.46-.38.43-.48a1.12,1.12,0,0,0-.16-.3.45.45,0,0,0-.22-.19c-.08,0-.26.08-.56.33-.08-.17-.16-.32-.23-.43l.52-.32a.49.49,0,0,0,.22-.25.29.29,0,0,0,0-.27,2.33,2.33,0,0,0-.22-.28c-.1-.11-.24-.11-.42,0l-.42.2-.42.27c-.18.12-.21.34-.08.65a9.26,9.26,0,0,0,.56,1.09A11.13,11.13,0,0,0,20,27.52c.21.29.4.39.56.31a4.89,4.89,0,0,0,.67-.46c.29-.23.43-.41.42-.56a.55.55,0,0,0-.23-.38A.31.31,0,0,0,21.08,26.38Z"/><path class="cls-4" d="M23.84,23.8a.92.92,0,0,0-.59-.18c0-.15-.08-.35-.31-.58a1,1,0,0,0-.66-.35,1.12,1.12,0,0,0-.62.21,2.89,2.89,0,0,0-.56.52q-.17.35.4,1.12a6.84,6.84,0,0,0,1,1.15.76.76,0,0,0,.81.22,2.53,2.53,0,0,0,.78-.69c.29-.35.35-.64.2-.88A2.07,2.07,0,0,0,23.84,23.8Zm-1.25-.06a.55.55,0,0,1-.21.29c-.11.09-.19.1-.25.06l-.35-.4c0-.08,0-.18.15-.28s.25-.15.34-.12a.61.61,0,0,1,.25.16A.28.28,0,0,1,22.59,23.74ZM23.41,25c-.22.22-.35.27-.38.16a3.09,3.09,0,0,1-.32-.35.16.16,0,0,1,0-.19l.29-.26a.4.4,0,0,1,.48.1C23.66,24.56,23.63,24.74,23.41,25Z"/><path class="cls-4" d="M12,7.18a1.44,1.44,0,0,0-1.2-.81h-.12a1.43,1.43,0,0,0-1,.43,1.46,1.46,0,0,0,.08,2.13A1,1,0,0,1,10,10a2.4,2.4,0,0,0-.15.86,3.21,3.21,0,0,0,2.07,2.73,6,6,0,0,0,1.65.47,7.41,7.41,0,0,0,1.52,0c2.11-.27,3.73-1.66,3.72-3.25a2.48,2.48,0,0,0-.16-.86,1,1,0,0,1,.26-1.06,1.46,1.46,0,1,0-2.28-1.72,1,1,0,0,1-1.05.52,6,6,0,0,0-2.5,0A1,1,0,0,1,12,7.18Zm.52,4.6a.62.62,0,0,1-.43.18.63.63,0,0,1-.43-.18.6.6,0,0,1-.18-.43.61.61,0,0,1,.61-.62.61.61,0,0,1,.62.61A.62.62,0,0,1,12.52,11.78Zm3.63-.89a.61.61,0,1,1,.87.86.64.64,0,0,1-.44.18.61.61,0,0,1-.43-.18.61.61,0,0,1,0-.87Zm-1.7,1.24c.51,0,.93.2.94.47s-.42.49-.93.5-.94-.2-.94-.47S13.93,12.15,14.45,12.14Z"/><path class="cls-4" d="M14.27,18.29a.92.92,0,0,0-.84.54.82.82,0,0,0-.06.35c0,.64.33,1.22,1,1.22s.82-.46.82-1.07A.92.92,0,0,0,14.27,18.29Z"/><path class="cls-4" d="M21.59,12.95c-1.28-1-3.48.62-4.92,1.21a5.94,5.94,0,0,1-2.3.45,6.4,6.4,0,0,1-2.42-.49c-1.44-.62-3.58-2.16-4.83-1.18a2.28,2.28,0,0,0-.83,2.42c.29.74,2.32,1.65,3,2,0,0,.62.24.62.65a.44.44,0,0,1-.27.42h0l-.06,0a2.5,2.5,0,0,1-.4.13l-.23.07-.07,0a2,2,0,0,0-1.05,1.17,2.26,2.26,0,0,0,.12,1.75l.22.45a2.31,2.31,0,0,0,1.32,1.16A2.06,2.06,0,0,0,11,23.12L13.23,22a5.63,5.63,0,0,0,1.08.11A6.69,6.69,0,0,0,15.47,22l2.22,1.13a2.06,2.06,0,0,0,1.58.11,2.31,2.31,0,0,0,1.32-1.16l.22-.45a2.26,2.26,0,0,0,.12-1.75,2,2,0,0,0-1.05-1.17l-.07,0-.23-.07a2.5,2.5,0,0,1-.4-.13l-.06,0h0a.44.44,0,0,1-.27-.42c0-.41.62-.65.62-.65.64-.36,2.67-1.27,3-2A2.28,2.28,0,0,0,21.59,12.95Zm-7.21,8.5A2.37,2.37,0,0,1,12,18.8,3.62,3.62,0,0,1,13,16.11a3.62,3.62,0,0,1,2.34-.89,4.05,4.05,0,0,1,.57,0V16.3a3.9,3.9,0,0,0-.55,0,1.94,1.94,0,0,0-2,1.45h0a1.7,1.7,0,0,1,1.28-.48,1.84,1.84,0,0,1,1.87,2A2.17,2.17,0,0,1,14.38,21.44Z"/></g></g></svg>