<svg xmlns="http://www.w3.org/2000/svg" viewBox="0 0 1037.77 282.5"><title>logo_black</title><g id="Layer_2" data-name="Layer 2"><g id="Layer_1-2" data-name="Layer 1"><path d="M0,64.87H71.8v8H9.2v52.4h53v8H9.2v63.4H0Z"/><path d="M147.4,151.47H95.2l-15.6,45.2H70.4l46.4-131.8H126l46.4,131.8h-9.6Zm-2.6-7.8-8.4-24.6q-4-11.8-7.6-22.6t-7-23H121q-3.4,12.2-7,23t-7.6,22.6L98,143.67Z"/><path d="M238.2,199.07a51.94,51.94,0,0,1-22.4-4.8,49.84,49.84,0,0,1-17.5-13.7A63.82,63.82,0,0,1,187,159a94.58,94.58,0,0,1-4-28.5,90.82,90.82,0,0,1,4.1-28.2,64.3,64.3,0,0,1,11.5-21.5,49.51,49.51,0,0,1,17.7-13.6,54.55,54.55,0,0,1,22.9-4.7,41.94,41.94,0,0,1,20.4,4.8,48,48,0,0,1,14,11l-5.4,6.2a42.17,42.17,0,0,0-12.6-9.9,34.94,34.94,0,0,0-16.2-3.7,44.28,44.28,0,0,0-19.5,4.2A42,42,0,0,0,205.1,87a54,54,0,0,0-9.3,18.7,88.73,88.73,0,0,0-3.2,24.8,89.8,89.8,0,0,0,3.2,24.9,56.13,56.13,0,0,0,9.2,18.9,41,41,0,0,0,33.6,16.4,39.32,39.32,0,0,0,18.2-4.1,53.47,53.47,0,0,0,15.2-12.1l5.4,5.8a59.15,59.15,0,0,1-17,13.8Q251,199.06,238.2,199.07Z"/><path d="M328.4,72.87h-42v-8h93.2v8h-42v123.8h-9.2Z"/><path d="M446.4,199.07a48.87,48.87,0,0,1-21.8-4.9,50,50,0,0,1-17.2-13.9,66.12,66.12,0,0,1-11.2-21.7,93.86,93.86,0,0,1-4-28.3,91.92,91.92,0,0,1,4-28.1,65.26,65.26,0,0,1,11.2-21.4,48.42,48.42,0,0,1,17.2-13.6,53.37,53.37,0,0,1,43.8,0,48.46,48.46,0,0,1,17.2,13.6,65.3,65.3,0,0,1,11.2,21.4,92,92,0,0,1,4,28.1,94,94,0,0,1-4,28.3,66.15,66.15,0,0,1-11.2,21.7,50,50,0,0,1-17.2,13.9A49.34,49.34,0,0,1,446.4,199.07Zm0-8.4a38.57,38.57,0,0,0,18.2-4.3,41.63,41.63,0,0,0,14.1-12.2,58.55,58.55,0,0,0,9.1-19,89.89,89.89,0,0,0,3.2-24.9,88,88,0,0,0-3.2-24.6A56.31,56.31,0,0,0,478.7,87a41.5,41.5,0,0,0-14.1-11.9,39.35,39.35,0,0,0-18.2-4.2A39.53,39.53,0,0,0,414,87a57.4,57.4,0,0,0-9,18.7,88,88,0,0,0-3.2,24.6,89.81,89.81,0,0,0,3.2,24.9,59.7,59.7,0,0,0,9,19,40.38,40.38,0,0,0,14.1,12.2A39.14,39.14,0,0,0,446.4,190.67Z"/><path d="M604,196.67l-35.8-60.6h-28v60.6H531V64.87h37.8a77.2,77.2,0,0,1,17.8,1.9,36.43,36.43,0,0,1,13.6,6.1,28.31,28.31,0,0,1,8.7,10.8,37.45,37.45,0,0,1,3.1,16q0,15.8-9.1,24.8t-24.7,11l36.4,61.2Zm-37.6-68.2q17.6,0,26.9-7.1t9.3-21.7q0-14.8-9.4-20.9t-26.8-6.1h-26.2v55.8Z"/><path d="M661.79,143.27l-39.4-78.4h9.8l20,41.2,6.7,14.2q3.3,7,7.3,14.2h.8q3.8-7.2,7.4-14.2t6.8-14.2l20-41.2h9.4L671,143.27v53.4h-9.2Z"/><path d="M818.07,189.2h30V83.2h-22.8v-6a103.26,103.26,0,0,0,13.9-3.4,59.15,59.15,0,0,0,10.7-4.6h7.2v120h27.8V197h-66.8Z"/><path d="M976.06,85.2a28.42,28.42,0,0,0-9.8-7.9,26.85,26.85,0,0,0-11.8-2.7,33.43,33.43,0,0,0-14.4,3.2,30.94,30.94,0,0,0-12,10.6q-5.2,7.4-8.3,19.5t-3.3,29.7a53.55,53.55,0,0,1,14.9-13,34.07,34.07,0,0,1,17.3-4.8q17,0,26.3,10.1t9.3,29.5a44.63,44.63,0,0,1-2.8,16.1,39.75,39.75,0,0,1-7.6,12.6,35.38,35.38,0,0,1-11.1,8.3,31,31,0,0,1-13.5,3q-19.4,0-30.6-15.6T907.46,139q0-20,3.9-33.8t10.4-22.4a37.78,37.78,0,0,1,15-12.3,43.9,43.9,0,0,1,17.7-3.7A33.05,33.05,0,0,1,970,70.2a40.58,40.58,0,0,1,11.5,9Zm-26.6,106.6a21.57,21.57,0,0,0,10.3-2.5,25,25,0,0,0,8.1-6.9,35.16,35.16,0,0,0,5.4-10.3,39.36,39.36,0,0,0,2-12.7,48.39,48.39,0,0,0-1.6-12.7,29.08,29.08,0,0,0-4.9-10.2,22.15,22.15,0,0,0-8.6-6.7,30.09,30.09,0,0,0-12.5-2.4q-6.8,0-15,4.3t-16,14.9a88.86,88.86,0,0,0,2.9,18.5,47.8,47.8,0,0,0,6.3,14.2,28.93,28.93,0,0,0,9.9,9.2A27.59,27.59,0,0,0,949.46,191.8Z"/><path d="M896.52,282.5c-77.89,0-141.25-63.36-141.25-141.25S818.63,0,896.52,0s141.25,63.36,141.25,141.25S974.4,282.5,896.52,282.5Zm0-275.5c-74,0-134.25,60.22-134.25,134.25S822.49,275.5,896.52,275.5s134.25-60.22,134.25-134.25S970.54,7,896.52,7Z"/></g></g></svg>