<svg xmlns="http://www.w3.org/2000/svg" xmlns:xlink="http://www.w3.org/1999/xlink" viewBox="0 0 29.45 24.66"><defs><style>.cls-1{isolation:isolate;}.cls-10,.cls-2,.cls-8{fill:#fff;}.cls-3{fill:#88c500;}.cls-11,.cls-4,.cls-9{fill:#026937;}.cls-5{fill:#727e7f;}.cls-5,.cls-6,.cls-7{mix-blend-mode:screen;}.cls-6{fill:url(#linear-gradient);}.cls-7{fill:url(#linear-gradient-2);}.cls-8{opacity:0.5;}.cls-9{opacity:0.3;}.cls-10{opacity:0.7;}.cls-11{opacity:0.4;}</style><linearGradient id="linear-gradient" x1="4.77" y1="4.35" x2="8.7" y2="7.77" gradientUnits="userSpaceOnUse"><stop offset="0" stop-color="#504d4a"/><stop offset="1" stop-color="#160b00"/></linearGradient><linearGradient id="linear-gradient-2" x1="88.52" y1="30.85" x2="90.65" y2="32.71" gradientTransform="matrix(1.13, 0.18, -0.44, 1.06, -70.88, -46.17)" xlink:href="#linear-gradient"/></defs><title>гмо</title><g class="cls-1"><g id="Layer_2" data-name="Layer 2"><g id="text"><path class="cls-2" d="M8.62,16.41A3.43,3.43,0,0,0,10.69,20a4.2,4.2,0,0,1,1.91,1.6A3.43,3.43,0,0,0,16.5,23,4.21,4.21,0,0,1,19,23a3.43,3.43,0,0,0,3.9-1.42A4.19,4.19,0,0,1,24.8,20a3.43,3.43,0,0,0,2.08-3.59A4.21,4.21,0,0,1,27.31,14a3.43,3.43,0,0,0-.72-4.09,4.17,4.17,0,0,1-1-1.47,9.29,9.29,0,0,1-3.12,1.36,12.3,12.3,0,0,1-4.53-.11l-.23,0h-.05a5,5,0,0,0-1.22,0h0a4.59,4.59,0,0,0-2.68,1.14h0l-.06.06a4,4,0,0,0-.3.32,7.61,7.61,0,0,0-1.5,2.9c0-.28,0-.66.05-.92a14.37,14.37,0,0,1,.53-2.29l.31-.65h0L12.81,9s0,0,0-.06c.07-1.11.06-6.95,5.09-8A12.61,12.61,0,0,1,26.7,2.21a4.54,4.54,0,0,0-1.18,1.46,9,9,0,0,1-2.67,3.41,8.3,8.3,0,0,1-3.38,1.38,8.21,8.21,0,0,0,2.43-.6c3.2-1.34,3.86-3.71,4.68-4.64a2.45,2.45,0,0,1,1.3-.87l-.37-.24A14.51,14.51,0,0,0,18.64.55a7.41,7.41,0,0,0-5.78,4c-.87,1.75-1,5.39-1,5.44a5.39,5.39,0,0,0-1.54-3.14A4.78,4.78,0,0,0,7.81,5.72,8.67,8.67,0,0,0,6.58,5.6a10.07,10.07,0,0,0-3.77.88c-.68.34-1.3.68-1.45.77l0,0A12.6,12.6,0,0,1,6.4,6a7.23,7.23,0,0,1,2.68.51c2.21.91,2.52,3.07,2.45,4.55,0,.25-.06.6-.09.85s0,.22-.05.31a4,4,0,0,1-.53.15A7.62,7.62,0,0,1,7.08,12a12,12,0,0,1-4-3.43A6.17,6.17,0,0,0,2.49,8a4.67,4.67,0,0,1,.46.49c.62.77,1.63,2.64,3.19,3.65a6.94,6.94,0,0,0,3.44.9h.28l-.07,0h.13l.27,0L10,13l.42,0a13,13,0,0,1-2.48.26,3.45,3.45,0,0,0,.26.67A4.21,4.21,0,0,1,8.62,16.41Z"/><path class="cls-2" d="M10.67,6.53a4.94,4.94,0,0,1,1.06,1.39A10.41,10.41,0,0,1,12,5.39,3.44,3.44,0,0,0,10.67,6.53Z"/><path class="cls-3" d="M27.95,2.34l-.42-.23.37.24Z"/><path class="cls-3" d="M1.35,7.25c.16-.08.78-.42,1.45-.77A11.54,11.54,0,0,0,1.35,7.25Z"/><path class="cls-3" d="M12,5.39a7.07,7.07,0,0,1,.69-1.8l-.19,0a4,4,0,0,0-3.28,2,4.68,4.68,0,0,1,1.46.89A3.44,3.44,0,0,1,12,5.39Z"/><path class="cls-3" d="M27.89,9.21a4.86,4.86,0,0,1-1.44-2.5A4,4,0,0,0,26,5.5a6.31,6.31,0,0,1-3.07,3.2c-2.2,1-4.58.64-6.48.93h0a5,5,0,0,1,1.22,0h.05l.23,0a12.3,12.3,0,0,0,4.53.11A9.29,9.29,0,0,0,25.56,8.4a4.17,4.17,0,0,0,1,1.47A3.43,3.43,0,0,1,27.31,14a4.21,4.21,0,0,0-.43,2.46A3.43,3.43,0,0,1,24.8,20a4.19,4.19,0,0,0-1.91,1.6A3.43,3.43,0,0,1,19,23a4.21,4.21,0,0,0-2.49,0,3.43,3.43,0,0,1-3.9-1.42A4.2,4.2,0,0,0,10.69,20a3.43,3.43,0,0,1-2.08-3.59A4.21,4.21,0,0,0,8.18,14a3.45,3.45,0,0,1-.26-.67,7.34,7.34,0,0,1-1.72-.18,3.85,3.85,0,0,0,.31.84A4.87,4.87,0,0,1,7,16.8,4,4,0,0,0,9.43,21a4.86,4.86,0,0,1,2.21,1.86,4,4,0,0,0,4.53,1.65,4.89,4.89,0,0,1,2.89,0,4,4,0,0,0,4.53-1.65A4.86,4.86,0,0,1,25.81,21a4,4,0,0,0,2.41-4.17,4.88,4.88,0,0,1,.5-2.85A4,4,0,0,0,27.89,9.21Z"/><path class="cls-3" d="M11.91,13.13c0,.27,0,.64-.05.92a7.61,7.61,0,0,1,1.5-2.9A6.2,6.2,0,0,1,16,9.07a11.29,11.29,0,0,1,3.5-.61,8.3,8.3,0,0,0,3.38-1.38,9,9,0,0,0,2.67-3.41A4.54,4.54,0,0,1,26.7,2.21,12.61,12.61,0,0,0,17.91.94c-5,1.1-5,6.94-5.09,8,0,0,0,0,0,.06l-.06,1.13h0l-.31.65A14.37,14.37,0,0,0,11.91,13.13Z"/><path class="cls-3" d="M10.86,12.42a4,4,0,0,0,.53-.15c0-.09,0-.19.05-.31s.07-.59.09-.85c.07-1.49-.24-3.65-2.45-4.55A7.23,7.23,0,0,0,6.4,6,12.6,12.6,0,0,0,1.31,7.27,3.52,3.52,0,0,1,2.49,8a6.17,6.17,0,0,1,.63.6,12,12,0,0,0,4,3.43A7.62,7.62,0,0,0,10.86,12.42Z"/><path class="cls-3" d="M9.91,13H10l.2,0Z"/><path class="cls-4" d="M29.26,2.83l.19.06-.11-.08h0l-.08,0-.51-.32-.12-.09h0c-2-1.19-7.42-3.77-13-1.36a5.93,5.93,0,0,0-2.91,2.59A7.07,7.07,0,0,0,12,5.39a10.41,10.41,0,0,0-.26,2.53,4.94,4.94,0,0,0-1.06-1.39,4.68,4.68,0,0,0-1.46-.89,6.77,6.77,0,0,0-2.29-.43A12.51,12.51,0,0,0,0,7.51,3,3,0,0,1,2.18,8.79c1.25,1.65,1.22,3,3.13,4a3.81,3.81,0,0,0,.89.32,7.34,7.34,0,0,0,1.72.18A13,13,0,0,0,10.41,13L10,13h-.2l.07,0H9.57a6.94,6.94,0,0,1-3.44-.9c-1.56-1-2.57-2.89-3.19-3.65A4.67,4.67,0,0,0,2.49,8a3.52,3.52,0,0,0-1.18-.74l0,0a11.54,11.54,0,0,1,1.45-.77A10.07,10.07,0,0,1,6.58,5.6a8.67,8.67,0,0,1,1.23.12,4.78,4.78,0,0,1,2.56,1.15A5.39,5.39,0,0,1,11.91,10s.08-3.69,1-5.44a7.41,7.41,0,0,1,5.78-4,14.51,14.51,0,0,1,8.88,1.57l.42.23h0a2.45,2.45,0,0,0-1.3.87c-.83.93-1.48,3.29-4.68,4.64a8.21,8.21,0,0,1-2.43.6,11.29,11.29,0,0,0-3.5.61,6.2,6.2,0,0,0-2.62,2.09,4,4,0,0,1,.3-.32l.06-.06h0A4.59,4.59,0,0,1,16.4,9.64c1.9-.29,4.29.09,6.48-.93A6.31,6.31,0,0,0,26,5.5a10,10,0,0,1,1-1.91A2.33,2.33,0,0,1,29.26,2.83Z"/><path class="cls-4" d="M15.54,12.23h0Z"/><path class="cls-4" d="M16.87,12.38c-.42-1-1.94-.78-2.44,0a1.42,1.42,0,0,1,.72-1c1-.46,1.87.21,2.33-1a3.35,3.35,0,0,0-2.67.47c-.89.72-1.55,2.52-.68,3.51C15.28,15.61,17.47,13.88,16.87,12.38Zm-1.33-.15s-.12,0,0,0h0c.69,0,.33,1.91-.32,1.91S14.85,12.25,15.54,12.23Z"/><path class="cls-4" d="M17.59,14.42a1.27,1.27,0,0,0,.84.26,2.58,2.58,0,0,0,.6-.07,2.41,2.41,0,0,0,.6-.22l.2-.79a1.54,1.54,0,0,1-.44.39,1,1,0,0,1-.52.15.48.48,0,0,1-.37-.14.7.7,0,0,1-.14-.44.23.23,0,0,1,0-.06.22.22,0,0,1,0-.06,2.6,2.6,0,0,0,1.31-.4,1,1,0,0,0,.48-.77.56.56,0,0,0-.25-.47,1.18,1.18,0,0,0-.71-.19,1.78,1.78,0,0,0-1.34.58,2,2,0,0,0-.55,1.42A1,1,0,0,0,17.59,14.42Zm1-2a.46.46,0,0,1,.36-.23.22.22,0,0,1,.14,0,.14.14,0,0,1,.06.12.63.63,0,0,1-.23.41.9.9,0,0,1-.53.26A1.23,1.23,0,0,1,18.59,12.42Z"/><path class="cls-4" d="M14.86,16.1,15.08,15H12.13a1.1,1.1,0,0,1,.14.24.55.55,0,0,1,0,.21c0,.07,0,.15,0,.25s0,.21-.06.34l-.55,2.64a2.84,2.84,0,0,1-.21.66,1.09,1.09,0,0,1-.32.37h0a2.35,2.35,0,0,0,1.29-.35,1.2,1.2,0,0,0,.42-.68h0l0-.17c0-.06,0-.09,0-.09h0l.58-2.74h.66a1,1,0,0,1,.49.09A.39.39,0,0,1,14.86,16.1Z"/><path class="cls-4" d="M18.7,15.5c-.09.18-.17.34-.25.48L17.4,17.92l-.35-2c-.07-.37-.1-.57-.1-.61s0-.07,0-.1,0-.05,0-.09A.83.83,0,0,1,17,15H15.53a.84.84,0,0,1,.15.21.46.46,0,0,1,0,.2.92.92,0,0,1,0,.18c0,.08-.07.27-.16.58L14.75,19a2.16,2.16,0,0,1-.2.52.82.82,0,0,1-.29.26h1.33a.54.54,0,0,1-.14-.18.49.49,0,0,1,0-.22,1.23,1.23,0,0,1,0-.2,3.41,3.41,0,0,1,.09-.38l.56-2,.33,1.88a2.8,2.8,0,0,0,.14.58,1.71,1.71,0,0,0,.43.52l.13.13,1.69-3.1-.21,2a2.37,2.37,0,0,1-.15.67.93.93,0,0,1-.28.36H20a.74.74,0,0,1-.18-.27,1.14,1.14,0,0,1-.05-.37.72.72,0,0,1,0-.17c0-.08,0-.16,0-.22l.27-2.65a2.38,2.38,0,0,1,.13-.65A1.08,1.08,0,0,1,20.5,15H18.91Z"/><path class="cls-4" d="M24.89,16a1.41,1.41,0,0,0-.89-1,2.16,2.16,0,0,0-.78-.13,2.67,2.67,0,0,0-1.05.2,2.15,2.15,0,0,0-.8.59,2.91,2.91,0,0,0-.54,1,3.9,3.9,0,0,0-.19,1.2,2.09,2.09,0,0,0,.44,1.37,1.65,1.65,0,0,0,1.36.53A2.33,2.33,0,0,0,24.28,19,3.22,3.22,0,0,0,25,16.84,2.76,2.76,0,0,0,24.89,16Zm-1.28,1.48a4.77,4.77,0,0,1-.2.81A1.89,1.89,0,0,1,23,19a.65.65,0,0,1-.48.24.5.5,0,0,1-.45-.28,1.58,1.58,0,0,1-.16-.79,5.21,5.21,0,0,1,.09-.9,4.35,4.35,0,0,1,.23-.84,1.81,1.81,0,0,1,.37-.61.63.63,0,0,1,.46-.22.52.52,0,0,1,.46.28,1.54,1.54,0,0,1,.16.79A5.09,5.09,0,0,1,23.61,17.51Z"/><path class="cls-4" d="M20.37,14.53a1.19,1.19,0,0,0,.66.15,2.43,2.43,0,0,0,1.27-.31.94.94,0,0,0,.51-.82.54.54,0,0,0-.2-.46.8.8,0,0,0-.49-.15v0a1,1,0,0,0,.58-.28.66.66,0,0,0,.2-.48.53.53,0,0,0-.24-.46,1.33,1.33,0,0,0-.74-.17l-.52,0a5.63,5.63,0,0,0-.56.09l-.16.79a1.55,1.55,0,0,1,.44-.26,1.26,1.26,0,0,1,.48-.1.47.47,0,0,1,.25.07.22.22,0,0,1,.09.19.32.32,0,0,1-.16.28.76.76,0,0,1-.43.1h-.12l-.17,0-.13.66.2-.08a.77.77,0,0,1,.23,0,.44.44,0,0,1,.3.1.32.32,0,0,1,.11.26.49.49,0,0,1-.17.38.6.6,0,0,1-.42.14A.32.32,0,0,1,21,14.1a.19.19,0,0,1-.07-.16.2.2,0,0,1,0-.09.22.22,0,0,1,.09-.08.45.45,0,0,0-.16-.1.46.46,0,0,0-.19,0,.48.48,0,0,0-.37.14.5.5,0,0,0-.14.34A.49.49,0,0,0,20.37,14.53Z"/><path class="cls-5" d="M3.3,7.72C3,8.16,4.09,9.37,5.06,10s1.57.21,1.78-.1S6.3,8.75,5.33,8.16,3.57,7.28,3.3,7.72Z"/><path class="cls-6" d="M9.08,6.56a7.38,7.38,0,0,0-3-.51.65.65,0,0,0-.25.16c-.43.46.33,1.37,1.68,2s2.88.68,3.22.36a.64.64,0,0,0,0-.79A3.69,3.69,0,0,0,9.08,6.56Z"/><path class="cls-4" d="M11.42,12.2A5.24,5.24,0,0,0,9.17,7.76a5.59,5.59,0,0,0-4.23-.84A5.59,5.59,0,0,1,9.41,8.44a6,6,0,0,1,2,3.82Z"/><path class="cls-5" d="M24.81,3.58c.36.65-.3,1.85-1.74,2.64s-3.19.69-3.47.23c-.39-.63.84-1.55,2.28-2.35S24.45,2.94,24.81,3.58Z"/><path class="cls-7" d="M20,2.35c.37.64-.79,2-2.6,3.06s-3.65,1.2-3.95.74C13,5.54,14,4.07,15.86,3S19.63,1.71,20,2.35Z"/><path class="cls-4" d="M14,6.14c-1.84,2.29-2,5.49-2.19,8,.15-.41.26-.79.42-1.18.08-.69.16-1.28.23-1.65a11.85,11.85,0,0,1,1.84-4.44l.21-.28c3.71-4.64,9.92-4.68,9.92-4.68S17.66,1.61,14,6.14Z"/><path class="cls-2" d="M20.62,6.4s0-.08-.12-.1-.14,0-.14,0,0,.08.12.1S20.61,6.44,20.62,6.4Z"/><path class="cls-8" d="M6.9,9.57a.7.7,0,0,0-.15-.76,1.17,1.17,0,0,0-1.39-.26A.73.73,0,0,0,5.2,9.77,1.12,1.12,0,0,0,6.38,10l.12,0A.79.79,0,0,0,6.9,9.57Z"/><path class="cls-4" d="M7,9.76H7a.81.81,0,0,1-.36.34,1.27,1.27,0,0,1-1.47-.23A.9.9,0,0,1,5,9.66a1.31,1.31,0,0,0,.22.59,1.36,1.36,0,0,0,1.31.53A.62.62,0,0,0,7,9.76Z"/><path class="cls-9" d="M6.83,9.69h0a.63.63,0,0,0,.08-.15v0a.47.47,0,0,0,0-.13,0,0,0,0,0,0,0,.79.79,0,0,1-.39.34,1.16,1.16,0,0,1-1.33-.17A.8.8,0,0,1,5,9a.74.74,0,0,0,.22.77A1.12,1.12,0,0,0,6.38,10l.12,0A.84.84,0,0,0,6.83,9.69Z"/><path class="cls-10" d="M5.52,8.59a.23.23,0,0,0,.3,0,.27.27,0,0,0,.1-.2,1.06,1.06,0,0,0-.44.07A.17.17,0,0,0,5.52,8.59Z"/><path class="cls-10" d="M6.84,8.86v0Z"/><path class="cls-10" d="M6.82,9.08A.21.21,0,0,0,6.88,9a.9.9,0,0,0-.13-.2l-.07-.07a.21.21,0,0,0-.11,0,.17.17,0,0,0,0,.26A.23.23,0,0,0,6.82,9.08Z"/><path class="cls-4" d="M21.45,7.13a1.89,1.89,0,0,1-2.21-.31A1,1,0,0,1,19,6.15a1.77,1.77,0,0,0,.36,1.16A1.74,1.74,0,0,0,21,7.84c.84-.14,1.2-.63.95-1.13A1.46,1.46,0,0,1,21.45,7.13Z"/><path class="cls-11" d="M21.93,5.34A1.78,1.78,0,0,0,19.7,5a1.24,1.24,0,0,0-.68.89,1.05,1.05,0,0,0,.22,1,1.89,1.89,0,0,0,2.21.31,1.18,1.18,0,0,0,.72-.83A1.21,1.21,0,0,0,21.93,5.34Zm-.71,1.74a1.67,1.67,0,0,1-1.84-.46.82.82,0,0,1-.22-.75,1.38,1.38,0,0,1,.7-.84,1.59,1.59,0,0,1,2,.35,1,1,0,0,1,.21.79A1.17,1.17,0,0,1,21.22,7.07Z"/><path class="cls-8" d="M21.22,7.07a1.17,1.17,0,0,0,.84-.91,1,1,0,0,0-.21-.79,1.59,1.59,0,0,0-2-.35,1.39,1.39,0,0,0-.61.61,1,1,0,0,0-.08.62.76.76,0,0,0,.21.37A1.67,1.67,0,0,0,21.22,7.07Z"/><path class="cls-9" d="M21.45,6.61a1.65,1.65,0,0,1-1.89-.21.93.93,0,0,1-.24-.87v0l0,0a1.05,1.05,0,0,0-.12.55h0s0,.05,0,.08h0a.07.07,0,0,0,0,0,.46.46,0,0,0,0,.08h0a.76.76,0,0,0,.17.26,1.67,1.67,0,0,0,1.84.46l.22-.1,0,0h0l.18-.12A1.5,1.5,0,0,0,22,6.29a.93.93,0,0,0,0-.13v0A1.42,1.42,0,0,1,21.45,6.61Z"/><path class="cls-10" d="M20.87,6c-.43,0-.81.3-.83.6s.31.53.74.5.81-.3.84-.6S21.3,5.95,20.87,6Z"/><path class="cls-2" d="M20.69,6.33s.05-.08.13-.1.13,0,.14,0,0,.08-.12.09S20.7,6.37,20.69,6.33Z"/><path class="cls-10" d="M20.16,5.07a.33.33,0,0,0,.42.05.27.27,0,0,0,.15-.3,1.74,1.74,0,0,0-.6.09A.19.19,0,0,0,20.16,5.07Z"/><path class="cls-10" d="M21.53,5.67a.33.33,0,0,0,.42.05l.07,0a1.24,1.24,0,0,0-.11-.23l-.06-.08-.08-.09-.11,0A.25.25,0,0,0,21.53,5.67Z"/><path class="cls-11" d="M6.77,8.76a1.21,1.21,0,0,0-1.51-.22.89.89,0,0,0-.14,1.34,1.27,1.27,0,0,0,1.47.23A.82.82,0,0,0,6.77,8.76ZM6.5,9.94a1.15,1.15,0,0,1-1.3-.17.73.73,0,0,1,.16-1.21,1.17,1.17,0,0,1,1.39.26A.67.67,0,0,1,6.5,9.94Z"/><path class="cls-2" d="M5.55,8.54s0-.05.08-.07.09,0,.1,0,0,.06-.08.07S5.56,8.57,5.55,8.54Z"/><path class="cls-2" d="M5.08,8.94a1.05,1.05,0,0,1,.51-.41c.44-.12.61,0,.61,0A2.07,2.07,0,0,0,6,8.76a.32.32,0,0,1-.09.1.93.93,0,0,0-.4-.05A3.66,3.66,0,0,0,5.08,8.94Z"/></g></g></g></svg>