
<svg xmlns="http://www.w3.org/2000/svg" viewBox="0 0 37.49 21.3"><defs><style>.cls-1{fill:#fff;}.cls-2{fill:#026937;}</style></defs><title>без сахара</title><g id="Layer_2" data-name="Layer 2"><g id="text"><path class="cls-1" d="M37.45,10.22l-.6-4.7A4.88,4.88,0,0,0,31.38,1.3l-7.12.91a2.78,2.78,0,0,0-.38-1.12,2.25,2.25,0,0,0-.82-.78,2.45,2.45,0,0,0-1-.29,3.77,3.77,0,0,0-.84,0,4.16,4.16,0,0,0-.55.11,4.27,4.27,0,0,0-.52.17l-.3.14,0-.15L14.71,1l-4.52.58L10.51,4l-6.24.8A4.9,4.9,0,0,0,0,10.24l.6,4.7a4.9,4.9,0,0,0,4.84,4.27h.19l0,.08a3.67,3.67,0,0,0,.82,1.22,2.76,2.76,0,0,0,1.23.7,3.29,3.29,0,0,0,.81.1l.44,0A4.23,4.23,0,0,0,9.93,21l2.69-.35,0-.23.09.21.75-.1h0l2-.26.82-.1h0l1-.13.06-.2.27.69.06-.53.9-.12L22,19.49l0-.24.09.22L25.65,19h0l1.64-.21h0l3.29-.42,0-.24.09.22,3.53-.45-1-2.24a4.9,4.9,0,0,0,4.2-5.46Z"/><path class="cls-2" d="M7.6,13.3l.14.62.26,0-.12-1-.35,0L7.13,9.93l-1.49.19q.1.76.13,1.31c0,.37,0,.69,0,.94a4,4,0,0,1-.06.58,1.7,1.7,0,0,1-.06.26l-.28,0,.12,1,.26,0,0-.63ZM6,10.4l.78-.1L7.16,13,6,13.17a5.22,5.22,0,0,0,.1-1A14.15,14.15,0,0,0,6,10.4Z"/><path class="cls-2" d="M10.45,11.22a3.77,3.77,0,0,0-.16-.72A1.74,1.74,0,0,0,10,10a1,1,0,0,0-.39-.31,1.05,1.05,0,0,0-.53-.06.93.93,0,0,0-.78.55,2.53,2.53,0,0,0-.11,1.34,4,4,0,0,0,.15.72,1.62,1.62,0,0,0,.27.53,1,1,0,0,0,.39.31,1,1,0,0,0,.53.06.94.94,0,0,0,.79-.55A2.5,2.5,0,0,0,10.45,11.22ZM10,12.36a.6.6,0,0,1-.51.42.51.51,0,0,1-.35-.07.91.91,0,0,1-.27-.28A1.71,1.71,0,0,1,8.71,12a3.24,3.24,0,0,1-.11-.54,2.32,2.32,0,0,1,.05-1.09.6.6,0,0,1,.5-.42.52.52,0,0,1,.36.07.83.83,0,0,1,.27.28,1.93,1.93,0,0,1,.19.43,3.94,3.94,0,0,1,.11.53A2.34,2.34,0,0,1,10,12.36Z"/><path class="cls-2" d="M11.64,12.79H12l.16,0a1.23,1.23,0,0,0,.4-.12.82.82,0,0,0,.29-.24A.91.91,0,0,0,13,12a1.51,1.51,0,0,0,0-.51,1.29,1.29,0,0,0-.14-.47.76.76,0,0,0-.25-.28.78.78,0,0,0-.33-.12,1.68,1.68,0,0,0-.39,0l-.19,0-.16,0-.13-1,1.15-.15,0-.33L11,9.42l.43,3.36Zm0-1.73.08,0,.09,0h.33a.44.44,0,0,1,.22.08.53.53,0,0,1,.17.2,1.16,1.16,0,0,1,.1.37.76.76,0,0,1-.09.56.58.58,0,0,1-.4.23l-.21,0H11.8l-.17-1.35Z"/><path class="cls-2" d="M14.21,9l-.58,3.57.36,0,.15-1,1-.12.4.91.38,0L14.41,8.94ZM15,11.08l-.77.1.15-1.08,0-.53h0l.16.5Z"/><path class="cls-2" d="M17.78,9.84a.91.91,0,0,0,.06-.25,1.11,1.11,0,0,0,0-.25,1,1,0,0,0-.13-.41.63.63,0,0,0-.24-.22.77.77,0,0,0-.31-.08,1.74,1.74,0,0,0-.34,0l-.42.07-.33.09.43,3.33h.39l.19,0,.16,0a1.32,1.32,0,0,0,.39-.11.9.9,0,0,0,.31-.22.86.86,0,0,0,.19-.34,1.18,1.18,0,0,0,0-.46,1.14,1.14,0,0,0-.09-.33.75.75,0,0,0-.16-.22.63.63,0,0,0-.21-.13.89.89,0,0,0-.23-.05v0a.59.59,0,0,0,.21-.16A.88.88,0,0,0,17.78,9.84Zm-.31.73a.48.48,0,0,1,.18.17.71.71,0,0,1,.1.31.75.75,0,0,1,0,.29.59.59,0,0,1-.11.22.57.57,0,0,1-.18.15.67.67,0,0,1-.24.07h-.4l-.16-1.24.32,0h.26A.55.55,0,0,1,17.47,10.57Zm-.08-.69a.74.74,0,0,1-.28.27l-.14,0-.16,0-.2,0-.15-1.18.15,0,.23,0h.22a.43.43,0,0,1,.19.07.42.42,0,0,1,.14.16.79.79,0,0,1,.08.26A.64.64,0,0,1,17.39,9.88Z"/><path class="cls-2" d="M20.12,8.6l.39,3,.36,0-.43-3.38L19,8.41c0,.42.08.78.11,1.09s0,.58,0,.81,0,.42,0,.57a2.55,2.55,0,0,1-.05.36.41.41,0,0,1-.13.24.24.24,0,0,1-.18,0v.34a.54.54,0,0,0,.24,0,.4.4,0,0,0,.26-.14.81.81,0,0,0,.16-.36,4.16,4.16,0,0,0,.06-1c0-.44,0-1-.11-1.64Z"/><polygon class="cls-2" points="22.85 7.91 21.35 8.1 21.78 11.49 23.31 11.29 23.27 10.96 22.1 11.11 21.94 9.87 22.99 9.73 22.95 9.4 21.9 9.54 21.75 8.39 22.89 8.24 22.85 7.91"/><polygon class="cls-2" points="24.51 11.14 24.31 9.57 25.56 9.41 25.76 10.98 26.12 10.93 25.68 7.55 25.32 7.59 25.51 9.08 24.27 9.24 24.07 7.75 23.71 7.8 24.15 11.18 24.51 11.14"/><polygon class="cls-2" points="29.04 10.55 28.61 7.17 28.37 7.2 27.4 9.59 27.29 10.07 27.27 10.07 27.24 9.63 26.96 7.38 26.59 7.43 27.03 10.81 27.27 10.78 28.24 8.42 28.35 7.94 28.36 7.94 28.39 8.39 28.68 10.6 29.04 10.55"/><path class="cls-2" d="M29.74,10.47l.42-.05.48-1.47L31,8.79l.19,1.49.36,0-.43-3.35a1.5,1.5,0,0,0-.31,0l-.29,0a1.81,1.81,0,0,0-.4.1.82.82,0,0,0-.31.21.83.83,0,0,0-.18.35,1.35,1.35,0,0,0,0,.51,1.11,1.11,0,0,0,.26.64.82.82,0,0,0,.5.25l-.21.23Zm.51-2A.7.7,0,0,1,30,8a.91.91,0,0,1,0-.34.53.53,0,0,1,.11-.23.5.5,0,0,1,.18-.14.94.94,0,0,1,.23-.06l.15,0h.12L31,8.58l-.26,0A.65.65,0,0,1,30.25,8.51Z"/><path class="cls-2" d="M36.14,10.39l-.6-4.7A3.7,3.7,0,0,0,31.41,2.5l-7.31.94.08.58,7.3-.94.4,0A3.11,3.11,0,0,1,35,5.76l.6,4.7a3.12,3.12,0,0,1-2.68,3.47l-.76.1.07.58.76-.1a3.7,3.7,0,0,0,3.19-4.13Z"/><path class="cls-2" d="M2.29,14.73,1.68,10A3.11,3.11,0,0,1,4.36,6.56l6.41-.82-.07-.58L4.29,6A3.7,3.7,0,0,0,1.1,10.1l.6,4.7A3.7,3.7,0,0,0,5.36,18l.32,0-.08-.59A3.1,3.1,0,0,1,2.29,14.73Z"/><path class="cls-2" d="M12.46,8.06h.39l.37,0,.29,0a1.88,1.88,0,0,0,1.31-.64A1.9,1.9,0,0,0,15.1,5.9a2.41,2.41,0,0,0-.21-.77,1.32,1.32,0,0,0-.39-.48,1.27,1.27,0,0,0-.55-.22,2.33,2.33,0,0,0-.69,0l-.32.06-.27.08-.15-1.19,1.89-.24-.12-.91-2.88.37L12.11,8ZM13,5.38l.21,0a1.52,1.52,0,0,1,.32,0,.57.57,0,0,1,.27.09.67.67,0,0,1,.2.25,1.36,1.36,0,0,1,.12.45,1,1,0,0,1-.11.72.71.71,0,0,1-.5.27l-.26,0H13l-.22-1.69Z"/><polygon class="cls-2" points="19.41 7.15 19.29 6.24 17.5 6.47 17.32 5.06 18.91 4.86 18.8 3.94 17.2 4.15 17.03 2.8 18.79 2.57 18.67 1.67 15.93 2.02 16.63 7.51 19.41 7.15"/><path class="cls-2" d="M20.68,2.32a1.43,1.43,0,0,1,.49-.15.8.8,0,0,1,.53.08.65.65,0,0,1,.25.51.66.66,0,0,1-.09.47.75.75,0,0,1-.33.28.89.89,0,0,1-.27.08l-.29,0-.19,0,.1.8.18,0h.25a1.21,1.21,0,0,1,.78.11.74.74,0,0,1,.29.55.84.84,0,0,1-.15.68.82.82,0,0,1-.53.28,2.19,2.19,0,0,1-.63,0,1.83,1.83,0,0,1-.43-.11l-.15.91A1.91,1.91,0,0,0,21.1,7a3.86,3.86,0,0,0,.79,0,2.38,2.38,0,0,0,.65-.18,1.63,1.63,0,0,0,.53-.37,1.45,1.45,0,0,0,.33-.57,1.89,1.89,0,0,0,0-.79,1.58,1.58,0,0,0-.34-.87,1.08,1.08,0,0,0-.69-.36v0a1.07,1.07,0,0,0,.48-.58A1.67,1.67,0,0,0,23,2.41a1.6,1.6,0,0,0-.21-.67,1.06,1.06,0,0,0-.39-.38,1.26,1.26,0,0,0-.52-.15,2.72,2.72,0,0,0-.58,0l-.4.08a2.81,2.81,0,0,0-.37.12l-.31.14L20,1.71l.36.82A1.85,1.85,0,0,1,20.68,2.32Z"/><path class="cls-2" d="M9.27,19a1.36,1.36,0,0,1-.46.14,1,1,0,0,1-.56-.07,1.11,1.11,0,0,1-.42-.35,2,2,0,0,1-.29-.59,4.45,4.45,0,0,1-.17-.78,2.93,2.93,0,0,1,.1-1.51.93.93,0,0,1,.77-.58,2.38,2.38,0,0,1,.48,0,1.35,1.35,0,0,1,.36.08l.09-.89a2.68,2.68,0,0,0-.49-.08,3.14,3.14,0,0,0-.68,0,2.17,2.17,0,0,0-.73.23,1.6,1.6,0,0,0-.6.54,2.46,2.46,0,0,0-.35.93,4.66,4.66,0,0,0,0,1.4,5,5,0,0,0,.33,1.33,2.48,2.48,0,0,0,.54.83,1.57,1.57,0,0,0,.7.4,2.12,2.12,0,0,0,.81,0,3,3,0,0,0,.67-.17,1.28,1.28,0,0,0,.51-.32l-.3-.81A1.84,1.84,0,0,1,9.27,19Z"/><path class="cls-2" d="M11.32,14l-.88,5.73,1-.13.16-1.3,1.29-.16.49,1.21,1-.13L12.1,13.93ZM12.6,17.4l-.91.12.14-1.31,0-.89h0l.24.85Z"/><polygon class="cls-2" points="18.37 13.17 17.3 13.3 16.84 14.96 16.77 15.57 16.55 14.99 15.71 13.51 14.52 13.66 16.08 16.2 15.1 19.17 16.18 19.02 16.71 17.25 16.78 16.61 17.03 17.2 17.98 18.8 19.13 18.65 17.45 15.97 18.37 13.17"/><path class="cls-2" d="M20.71,12.83l-.88,5.73,1-.13.16-1.3L22.26,17l.5,1.21,1-.13-2.31-5.32ZM22,16.19l-.91.12L21.22,15l0-.89h0l.24.85Z"/><path class="cls-2" d="M27.31,12.84a1.43,1.43,0,0,0-.52-.49,1.6,1.6,0,0,0-.66-.18,3.79,3.79,0,0,0-.72,0,6.69,6.69,0,0,0-.67.12,6.23,6.23,0,0,0-.61.18l.7,5.43,1-.13-.24-1.89h.26l.15,0h.1a2.14,2.14,0,0,0,.64-.19,1.48,1.48,0,0,0,.52-.4,1.65,1.65,0,0,0,.31-.64,2.43,2.43,0,0,0,0-.9A2.17,2.17,0,0,0,27.31,12.84Zm-.75,1.55a.79.79,0,0,1-.15.34.69.69,0,0,1-.26.2,1.11,1.11,0,0,1-.32.09h-.36l-.24-1.87a1.7,1.7,0,0,1,.4-.09,1.12,1.12,0,0,1,.32,0,.68.68,0,0,1,.28.12.71.71,0,0,1,.22.26,1.29,1.29,0,0,1,.12.43A1.48,1.48,0,0,1,26.56,14.38Z"/><path class="cls-2" d="M29.28,11.73l-.88,5.73,1-.12.16-1.3,1.29-.17.5,1.21,1-.13-2.31-5.32Zm1.28,3.37-.91.12.14-1.31,0-.89h0l.24.84Z"/></g></g></svg>